<?xml version="1.0" encoding="utf-8"?>
<!-- Generator: Adobe Illustrator 16.0.0, SVG Export Plug-In . SVG Version: 6.00 Build 0)  -->
<!DOCTYPE svg PUBLIC "-//W3C//DTD SVG 1.1//EN" "http://www.w3.org/Graphics/SVG/1.1/DTD/svg11.dtd">
<svg version="1.1" id="Layer_1" xmlns="http://www.w3.org/2000/svg" xmlns:xlink="http://www.w3.org/1999/xlink" x="0px" y="0px"
	 width="500px" height="195px" viewBox="0 0 500 195" enable-background="new 0 0 500 195" xml:space="preserve">
<g>
	<path fill="#06C987" d="M96.658,0.843C43.275,0.843,0,44.119,0,97.5c0,53.384,43.275,96.66,96.658,96.66
		c53.383,0,96.657-43.275,96.657-96.66C193.315,44.119,150.041,0.843,96.658,0.843z M121.963,134.268
		c-2.988-0.229-6,0.248-8.985-0.296c-4.96-0.902-7.178-3.465-7.194-8.552c-0.035-11.822-0.019-23.646-0.006-35.467
		c0.002-1.284-0.105-2.547-0.329-3.81c-0.8-4.525-3.414-7.293-7.909-8.267c-2.843-0.617-5.708-0.623-8.55,0.009
		c-4.7,1.044-7.576,4.138-7.694,8.966c-0.19,7.663-0.05,15.334-0.05,23.001c-0.036,0-0.072,0-0.108,0
		c0,7.413-0.032,14.826,0.029,22.238c0.012,1.376-0.272,1.878-1.776,1.847c-4.852-0.104-9.713-0.108-14.567,0.002
		c-1.575,0.034-1.878-0.487-1.874-1.943c0.051-14.06,0.035-28.118,0.023-42.176c-0.002-1.276,0.017-2.575-0.206-3.821
		c-0.952-5.332-4.285-8.219-10.073-8.78c-2.235-0.217-4.474-0.118-6.667,0.405c-4.954,1.176-7.634,4.876-7.646,10.72
		c-0.031,14.378-0.057,28.757,0.038,43.135c0.013,2.02-0.528,2.532-2.501,2.469c-4.723-0.148-9.456-0.077-14.185-0.027
		c-1.112,0.012-1.568-0.216-1.56-1.462c0.082-14.951-0.139-29.909,0.247-44.855c0.217-8.457,3.154-16.037,10.5-21.152
		c4.299-2.994,9.217-4.313,14.361-4.801c6.338-0.604,12.63-0.395,18.765,1.544c2.511,0.793,4.872,1.903,7.023,3.428
		c0.649,0.461,1.156,0.815,2.015,0.212c4.181-2.933,8.941-4.327,13.952-4.827c6.518-0.649,13.026-0.63,19.359,1.353
		c10.389,3.253,15.518,10.782,17.079,21.186c0.37,2.474,0.451,4.958,0.451,7.45c0.006,13.421-0.023,26.839,0.039,40.259
		C123.97,133.828,123.586,134.391,121.963,134.268z M173.725,64.178c-0.072,5.043-0.094,10.091,0.011,15.133
		c0.031,1.505-0.468,1.805-1.844,1.759c-2.803-0.091-5.617-0.152-8.404,0.333c-6.881,1.194-10.804,6.32-10.859,14.5
		c-0.072,11.176-0.02,22.353-0.021,33.525c0,4.471,0,4.471-4.412,4.471c-4.086,0-8.175-0.052-12.26,0.029
		c-1.286,0.026-1.616-0.382-1.606-1.617c0.052-6.577,0.023-13.156,0.023-20.689c0.074-5.427-0.248-11.82,0.251-18.193
		c0.647-8.273,2.912-15.943,9.025-21.974c5.276-5.205,11.918-7.427,19.06-8.482c3.104-0.459,6.233-0.421,9.359-0.529
		C173.432,62.398,173.744,62.871,173.725,64.178z"/>
	<path fill="#06C987" d="M499.938,90.562c-0.026-4.478-0.672-8.91-2.288-13.13c-3.256-8.496-9.657-13.274-18.353-15.108
		c-3.237-0.683-6.489-1.034-9.743-1.059c-3.251,0.024-6.506,0.375-9.741,1.059c-8.697,1.834-15.098,6.612-18.354,15.108
		c-1.618,4.22-2.262,8.653-2.288,13.13c-0.079,13.925-0.019,27.848-0.062,41.773c0,0.519,0,1.04,0,1.56
		c0.357,0.001,0.714,0.005,1.072,0.006c0.166,0.022,0.327,0.05,0.549,0.047c1.132-0.019,2.264-0.02,3.394-0.031
		c1.333,0.005,2.661,0.007,3.992-0.014c0.055-0.002,0.104-0.01,0.157-0.014c2.225,0,4.446,0.018,6.669,0.072
		c1.746,0.047,2.197-0.43,2.189-2.186c-0.02-4.033-0.021-8.067-0.03-12.099c0.009-9.974,0.001-19.948,0.012-29.921
		c0-1.146-0.024-2.315,0.177-3.435c0.962-5.411,3.807-8.11,9.362-8.952c0.01-0.002,0.02-0.003,0.028-0.005
		c0.379-0.066,0.757-0.113,1.137-0.152c0.108-0.011,0.222-0.019,0.331-0.029c0.267-0.02,0.53-0.035,0.794-0.043
		c0.204-0.006,0.409-0.012,0.612-0.012c0.205,0,0.409,0.006,0.614,0.012c0.263,0.009,0.526,0.024,0.792,0.043
		c0.111,0.01,0.223,0.018,0.333,0.029c0.379,0.039,0.758,0.086,1.136,0.152c0.009,0.002,0.018,0.003,0.027,0.005
		c5.558,0.842,8.4,3.542,9.365,8.952c0.197,1.12,0.174,2.289,0.174,3.435c0.012,11.688-0.006,23.377,0.014,35.065
		c0.009,5.764,3.069,8.899,8.786,9.064c0.071,0.002,0.13,0.015,0.2,0.017c1.327,0.021,2.658,0.019,3.988,0.014
		c1.131,0.012,2.264,0.013,3.395,0.031c0.224,0.003,0.382-0.024,0.552-0.047c0.358-0.001,0.714-0.005,1.07-0.006
		c0-0.52,0-1.041,0-1.56C499.956,118.409,500.017,104.486,499.938,90.562z"/>
	<path fill="#06C987" d="M315.366,63.733c-6.5-1.767-13.1-1.872-19.761-1.158c-13.107,1.402-22.096,8.965-25.394,21.726
		c-2.354,9.12-2.079,18.339-0.423,27.545c0.772,4.302,2.171,8.398,4.493,12.13c5.107,8.201,12.959,11.142,22.141,11.345
		c6.106,0.131,11.765-1.323,16.569-5.346c1.611-1.349,2.909-2.985,4.557-5.062c-0.213,4.474,0.198,8.369-0.438,12.252
		c-1.009,6.147-4.529,10.13-10.243,11.162c-2.838,0.511-5.72,0.435-8.575-0.135c-3.617-0.726-6.417-2.48-7.645-6.145
		c-0.258-0.773-0.712-0.932-1.425-0.931c-5.815,0.012-11.63,0.021-17.444-0.005c-0.956-0.004-1.279,0.292-0.98,1.23
		c2.913,9.188,8.12,16.454,17.65,19.469c11.485,3.634,22.858,2.571,33.791-2.28c6.507-2.888,10.516-8.104,12.214-15.063
		c0.688-2.814,0.956-5.667,0.96-8.542c0.025-13.867,0.02-27.734,0.004-41.6c-0.002-2.876-0.21-5.745-0.691-8.583
		C332.813,74.42,326.656,66.8,315.366,63.733z M315.118,110.916c-2.327,5.966-6.917,8.635-13.583,8.494
		c-6.101-0.13-10.17-3.037-12.436-8.979c-1.52-3.986-1.971-8.159-1.952-12.397c0.018-4.366,0.461-8.659,2.237-12.715
		c2.431-5.56,6.928-8.282,13.453-8.161c6.167,0.114,10.711,3.028,12.697,8.677C318.478,94.199,318.338,102.663,315.118,110.916z"/>
	<path fill="#06C987" d="M261.061,95.069c0-4.906,0.004-8.93-0.002-12.955c-0.018-9.351-4.308-15.507-13.226-18.391
		c-9.375-3.033-18.984-3.323-28.523-0.994c-8.698,2.124-14.148,7.749-16.115,16.603c-0.271,1.218-0.263,1.795,1.308,1.763
		c4.979-0.103,9.963-0.056,14.946-0.021c0.928,0.006,1.514-0.188,1.923-1.132c0.583-1.346,1.749-2.235,3.105-2.695
		c5.07-1.718,10.167-1.683,15.18,0.183c2.115,0.787,3.466,2.381,3.562,4.766c0.094,2.352-1.313,3.792-3.183,4.839
		c-2.026,1.133-4.261,1.691-6.547,2.004c-5.616,0.771-11.274,1.27-16.73,2.985c-8.547,2.688-15.237,7.902-16.028,19.708
		c-0.69,10.298,4.974,19.155,14.818,22.167c8.667,2.652,17.315,1.796,25.841-0.641c10.939-3.123,17.504-10.313,19.215-21.658
		C261.475,105.826,260.921,99.993,261.061,95.069z M243.537,99.623c-0.08,1.145-0.016,2.298-0.016,3.99
		c0.039,1.82,0.005,4.169-0.649,6.478c-1.671,5.891-6.245,9.771-12.374,10.375c-1.519,0.151-3.035,0.314-4.582,0.117
		c-3.839-0.492-6.058-2.195-7-5.52c-1.117-3.947-0.06-7.505,2.929-9.79c1.916-1.463,4.133-2.286,6.457-2.755
		c4.694-0.945,9.306-2.168,13.758-3.935C243.317,98.083,243.625,98.356,243.537,99.623z"/>
	<path fill="#06C987" d="M402.374,95.635c0-5.307,0.015-9.588-0.003-13.867c-0.043-9.077-4.281-15.166-12.927-17.99
		c-9.368-3.058-18.975-3.377-28.522-1.104c-8.859,2.108-14.408,7.765-16.362,16.813c-0.305,1.404,0.066,1.605,1.318,1.592
		c4.854-0.051,9.708-0.058,14.563,0.006c1.212,0.015,1.996-0.217,2.518-1.438c0.457-1.073,1.448-1.803,2.548-2.214
		c5.299-1.982,10.624-1.936,15.859,0.153c1.938,0.773,3.161,2.353,3.262,4.574c0.105,2.269-1.195,3.694-2.99,4.753
		c-2.064,1.216-4.354,1.797-6.703,2.118c-5.303,0.727-10.647,1.198-15.819,2.69c-9.56,2.756-15.921,8.297-16.868,18.826
		c-0.961,10.678,3.866,20.557,15.937,23.721c8.265,2.168,16.491,1.34,24.565-0.988c10.984-3.168,17.632-10.334,19.241-21.828
		C402.771,105.854,402.187,100.22,402.374,95.635z M384.969,103.27c0.109,2.317-0.063,5.042-0.967,7.673
		c-1.967,5.736-6.183,8.684-12.019,9.51c-1.567,0.222-3.153,0.302-4.763,0.13c-3.205-0.347-5.611-1.767-6.68-4.874
		c-1.168-3.396-0.993-6.677,1.635-9.447c2.104-2.223,4.867-3.202,7.771-3.794c4.621-0.943,9.168-2.143,13.551-3.896
		c1.196-0.479,1.597-0.322,1.489,1.009C384.899,100.655,384.969,101.747,384.969,103.27z"/>
	<path fill="#06C987" d="M429.063,71.406c0-0.575,0.011-1.153-0.042-1.724c-0.417-4.5-2.911-6.967-7.429-7.159
		c-2.932-0.125-5.879,0.032-8.811-0.105c-1.501-0.072-1.775,0.47-1.767,1.845c0.05,11.306,0.027,22.611,0.027,33.918
		c0,11.242,0.047,22.485-0.049,33.726c-0.014,1.769,0.522,2.086,2.137,2.048c4.661-0.104,9.326-0.11,13.987,0.005
		c1.608,0.038,1.988-0.414,1.983-1.999C429.044,111.776,429.063,91.591,429.063,71.406z"/>
	<path fill="#06C987" d="M412.475,56.081c2.546-0.058,5.095-0.019,7.643-0.02c2.548,0,5.098-0.036,7.645,0.019
		c0.967,0.02,1.368-0.229,1.322-1.271c-0.079-1.782,0.035-3.57-0.044-5.35c-0.188-4.241-2.419-6.682-6.634-7.284
		c-3.42-0.489-6.87-0.102-10.303-0.236c-1.057-0.042-1.07,0.578-1.065,1.34c0.014,3.822,0.048,7.645-0.021,11.467
		C410.996,55.909,411.467,56.102,412.475,56.081z"/>
</g>
</svg>
