<svg width="242" height="137" viewBox="0 0 242 137" fill="none" xmlns="http://www.w3.org/2000/svg">
<path d="M171.715 133.439L148.717 133.48C148.39 133.481 148.115 133.147 148.096 132.739C148.078 132.331 148.321 131.973 148.647 131.944L171.552 129.887C173.412 129.72 175.106 130.44 175.154 131.502C175.203 132.563 173.582 133.435 171.715 133.439Z" fill="#75A1DE"/>
<path d="M141.938 130.182C142.731 129.984 144.184 125.646 144.184 125.646C144.184 125.646 127.577 120.046 120.533 116.397L110.721 127.747C123.325 130.887 141.35 130.329 141.938 130.182Z" fill="#F09959"/>
<path d="M139.384 123.928C143.471 124.985 149.973 122.343 151.188 122.607C152.403 122.871 157.484 125.514 158.699 126.835C159.914 128.156 164.222 132.252 163.449 132.517C162.676 132.781 157.263 128.817 156.601 128.685C155.938 128.553 155.606 129.478 150.194 130.535C144.781 131.592 138.238 128.861 138.238 128.861L139.384 123.928Z" fill="#F09959"/>
<path d="M145.886 128.024C145.886 128.024 152.182 126.438 152.956 126.703C153.729 126.967 158.423 128.024 161.682 131.724C158.589 130.799 154.17 130.535 152.956 130.535C151.741 130.535 145.886 128.024 145.886 128.024Z" fill="#E38540"/>
<path d="M147.391 125.382C150.08 128.817 156.905 129.874 157.939 131.063C158.973 132.253 155.453 131.747 153.596 131.592C148.869 131.195 145.566 133.111 141.74 131.922C137.914 130.733 137.049 127.892 137.049 127.892L147.391 125.382Z" fill="#F09959"/>
<path d="M97.0017 64.3984C84.8742 70.3576 79.3252 74.7176 75.5596 90.9687C71.7941 107.22 71.596 122.678 73.5778 134.172C87.039 134.563 125.621 136.017 125.621 136.017C125.621 136.017 124.886 112.417 120.944 93.7432C117.178 75.9068 111.827 68.9703 107.269 65.7992C102.711 62.6284 97.0017 64.3984 97.0017 64.3984Z" fill="#A2DFF2"/>
<path d="M99.936 119.705C95.589 115.345 96.7652 85.8155 89.6305 72.5375L76.3523 97.3104L72.3383 117.923C72.3041 123.876 72.7497 129.371 73.5776 134.172C73.625 134.445 73.8747 134.629 74.1453 134.606C85.1068 133.646 85.7174 128.882 120.732 123.597C121.558 123.472 102.894 122.671 99.936 119.705Z" fill="#96CFE0"/>
<path d="M95.8476 64.4044C94.311 67.9897 97.4331 72.6845 102.366 76.384C107.299 80.0836 110.294 78.0576 110.029 75.1508C109.765 72.244 109.501 69.1609 108.356 67.311C107.211 65.4611 98.0499 63.8758 98.0499 63.8758C98.0499 63.8758 96.1118 63.7877 95.8476 64.4044Z" fill="white"/>
<path d="M101.705 46.4333L97.0016 64.3982C96.539 65.6007 96.666 66.949 97.3443 68.0442C99.2597 71.1378 103.38 77.0822 106.33 76.2958C110.293 75.2387 107.651 67.8396 107.651 67.8396L112.936 49.208L101.705 46.4333Z" fill="#F09959"/>
<path d="M108.911 47.5424L104.216 45.6417L102.805 49.3092C103.452 64.9236 105.441 71.2965 108.495 73.0727C108.66 70.6644 107.651 67.8394 107.651 67.8394L111.483 53.9643L108.911 47.5424Z" fill="#E38540"/>
<path d="M121.953 54.5814C121.038 60.7825 118.594 66.0961 114.165 65.442C109.736 64.7876 102.131 59.5983 103.046 53.3969C103.962 47.1956 113.905 39.7699 118.334 40.424C122.764 41.0782 122.869 48.38 121.953 54.5814Z" fill="#F09959"/>
<path d="M88.2433 77.8886C88.5964 76.4801 82.9555 75.6384 82.0582 76.7798C73.184 88.0659 59.3805 118.556 62.4796 124.065C66.047 130.407 104.48 122.079 105.273 121.88C106.065 121.682 103.885 115.736 103.885 115.736C103.885 115.736 82.3484 116.133 78.7148 113.688C90.0111 92.4828 85.5672 88.5606 88.2433 77.8886Z" fill="#F09959"/>
<path d="M86.0632 71.5465C76.7414 75.7252 66.6414 102.86 66.6414 102.86C66.6414 102.86 69.0195 103.454 76.7487 106.03C79.9615 107.101 83.0751 108.095 83.0751 108.095C83.0751 108.095 90.4742 98.4934 92.8016 90.9686C95.7995 81.2754 91.8106 68.9702 86.0632 71.5465Z" fill="#A2DFF2"/>
<path d="M67.6409 100.313C76.3598 101.438 81.5698 104.474 84.2171 106.547C84.6151 105.994 85.0964 105.311 85.6285 104.528C83.7941 102.809 79.8043 99.7451 74.0021 98.9342C71.6461 98.6048 69.8523 98.392 68.4905 98.2561C68.1689 99.0198 67.8843 99.7115 67.6409 100.313Z" fill="white"/>
<path d="M69.6414 95.5876C69.4919 95.9261 69.3472 96.2568 69.2073 96.5792C76.8659 96.2728 84.2142 100.004 86.0698 102.281C86.2875 102.548 86.4795 102.784 86.651 102.994C86.8431 102.7 87.0385 102.397 87.236 102.086C85.9795 100.849 83.748 98.8621 81.4895 97.8768C76.8659 95.8593 70.2368 95.6068 69.6414 95.5876Z" fill="white"/>
<path d="M120.996 123.51H111.218L109.765 105.254H122.581L120.996 123.51Z" fill="#75A1DE"/>
<path d="M102.696 115.802C105.405 115.736 109.831 112.631 111.351 111.772C112.87 110.914 121.458 109.064 121.855 109.989C122.251 110.914 114.654 112.829 114.654 112.829L120.335 113.094C120.335 113.094 121.987 115.604 122.119 117.256C122.251 118.907 121.591 121.286 121.591 121.286L119.08 119.04C119.08 119.04 117.032 120.162 114.456 121.682C111.879 123.201 107.255 122.277 105.273 121.88C103.291 121.484 98.6663 120.03 98.6663 120.03L102.696 115.802Z" fill="#F09959"/>
<path d="M67.2856 114.944C67.2856 114.944 71.6679 112.411 76.0723 113.028C78.5962 113.381 78.8699 113.793 78.7146 113.688C79.2602 112.664 79.7681 111.681 80.2429 110.735C77.9483 110.842 72.0657 111.462 67.2856 114.944Z" fill="#E38540"/>
<path d="M205.613 83.8271V128.817C205.613 130.313 204.203 131.526 202.464 131.526H193.018C191.406 131.526 190.099 132.65 190.099 134.036H203.693C206.62 134.036 208.992 131.995 208.992 129.478V83.8273H205.613V83.8271Z" fill="#6791C9"/>
<path d="M198.704 122.357L197.204 122.072C196.215 121.883 195.584 121.032 195.803 120.181L207.559 74.5136C207.778 73.6622 208.767 73.1197 209.757 73.3084L211.257 73.5941C212.247 73.7824 212.877 74.6333 212.658 75.4847L200.902 121.152C200.683 122.004 199.694 122.546 198.704 122.357Z" fill="#95BEF5"/>
<path d="M199.114 122.435L198.937 122.402C198.173 122.256 197.686 121.599 197.855 120.941L209.792 74.569C209.962 73.9114 210.725 73.4928 211.49 73.6381L211.667 73.6718C212.431 73.8176 212.918 74.4745 212.749 75.1321L200.812 121.505C200.642 122.162 199.878 122.581 199.114 122.435Z" fill="#75A1DE"/>
<path d="M230.408 136.642H28.4796C27.5454 136.642 26.7881 135.885 26.7881 134.951C26.7881 134.016 27.5454 133.259 28.4796 133.259H230.408C231.342 133.259 232.1 134.016 232.1 134.951C232.1 135.885 231.343 136.642 230.408 136.642Z" fill="#2E5B9A"/>
<path d="M103.741 38.6868C94.5917 44.362 100.383 50.5001 97.9504 61.0395C99.4451 61.5512 101.077 58.6073 102.12 56.2912C103.162 53.9747 104.089 50.6159 104.436 50.7318C104.784 50.8477 105.363 56.0595 105.363 56.0595L106.753 56.7543C106.753 56.7543 108.722 53.2797 108.606 52.4693C108.49 51.6584 106.868 47.7208 108.838 45.8674C110.103 44.677 115.323 47.2573 115.323 47.2573L110.227 39.9608L103.741 38.6868Z" fill="#F09959"/>
<path opacity="0.5" d="M103.741 38.6868C94.5917 44.362 100.383 50.5001 97.9504 61.0395C99.4451 61.5512 101.077 58.6073 102.12 56.2912C103.162 53.9747 104.089 50.6159 104.436 50.7318C104.784 50.8477 105.363 56.0595 105.363 56.0595L106.753 56.7543C106.753 56.7543 108.722 53.2797 108.606 52.4693C108.49 51.6584 106.868 47.7208 108.838 45.8674C110.103 44.677 115.323 47.2573 115.323 47.2573L110.227 39.9608L103.741 38.6868Z" fill="#2E5B9A"/>
<path d="M123.778 44.8253C123.314 50.3845 114.697 48.645 110.69 43.6671C106.868 38.9186 103.724 42.1916 99.9193 43.783C93.5494 46.4467 100.73 31.0431 113.586 33.4752C123.231 35.3 124.086 41.1247 123.778 44.8253Z" fill="#2E5B9A"/>
<path d="M102.881 54.9528C104.231 54.6953 105.006 52.8057 104.611 50.7322C104.216 48.6587 102.8 47.1865 101.45 47.4439C100.099 47.7013 99.324 49.5909 99.7192 51.6645C100.114 53.738 101.53 55.2102 102.881 54.9528Z" fill="#F09959"/>
<path d="M202.066 63.0229H157.344C156.833 63.0229 156.418 62.6083 156.418 62.097V36.203C156.418 35.6917 156.833 35.2771 157.344 35.2771H202.066C202.577 35.2771 202.991 35.6917 202.991 36.203V62.097C202.991 62.6083 202.577 63.0229 202.066 63.0229Z" fill="#9EC8FF"/>
<path d="M200.757 62.1723H158.652C158.207 62.1723 157.845 61.8112 157.845 61.3658V40.5454C157.845 40.1 158.207 39.7389 158.652 39.7389H200.757C201.203 39.7389 201.564 40.1 201.564 40.5454V61.3658C201.564 61.8114 201.203 62.1723 200.757 62.1723Z" fill="white"/>
<path d="M159.702 38.4059H158.718C158.51 38.4059 158.342 38.2375 158.342 38.0296V37.2196C158.342 37.0118 158.51 36.8434 158.718 36.8434H159.702C159.91 36.8434 160.078 37.0118 160.078 37.2196V38.0296C160.078 38.2375 159.91 38.4059 159.702 38.4059Z" fill="white"/>
<path d="M162.859 38.4059H161.875C161.667 38.4059 161.499 38.2375 161.499 38.0296V37.2196C161.499 37.0118 161.667 36.8434 161.875 36.8434H162.859C163.066 36.8434 163.235 37.0118 163.235 37.2196V38.0296C163.235 38.2375 163.066 38.4059 162.859 38.4059Z" fill="white"/>
<path d="M166.015 38.4059H165.031C164.823 38.4059 164.655 38.2375 164.655 38.0296V37.2196C164.655 37.0118 164.823 36.8434 165.031 36.8434H166.015C166.223 36.8434 166.391 37.0118 166.391 37.2196V38.0296C166.391 38.2375 166.223 38.4059 166.015 38.4059Z" fill="white"/>
<path d="M200.081 60.8502H159.328V41.0612H200.081V60.8502ZM159.474 60.704H199.935V41.207H159.474V60.704Z" fill="#9EC8FF"/>
<path d="M200.008 56.7756H159.401V56.9216H200.008V56.7756Z" fill="#9EC8FF"/>
<path d="M200.008 52.8469H159.401V52.9929H200.008V52.8469Z" fill="#9EC8FF"/>
<path d="M200.008 48.9182H159.401V49.0644H200.008V48.9182Z" fill="#9EC8FF"/>
<path d="M200.008 44.9896H159.401V45.1356H200.008V44.9896Z" fill="#9EC8FF"/>
<path d="M194.28 41.1339H194.135V60.7769H194.28V41.1339Z" fill="#9EC8FF"/>
<path d="M188.479 41.1339H188.333V60.7769H188.479V41.1339Z" fill="#9EC8FF"/>
<path d="M182.678 41.1339H182.532V60.7769H182.678V41.1339Z" fill="#9EC8FF"/>
<path d="M176.877 41.1339H176.731V60.7769H176.877V41.1339Z" fill="#9EC8FF"/>
<path d="M171.076 41.1339H170.93V60.7769H171.076V41.1339Z" fill="#9EC8FF"/>
<path d="M165.275 41.1339H165.129V60.7769H165.275V41.1339Z" fill="#9EC8FF"/>
<path d="M198.489 43.6145H197.124C196.603 43.6145 196.177 43.1885 196.177 42.6677C196.177 42.1469 196.603 41.7208 197.124 41.7208H198.489C199.01 41.7208 199.436 42.1469 199.436 42.6677C199.436 43.1885 199.01 43.6145 198.489 43.6145Z" fill="#F39892"/>
<path d="M198.985 51.5422H196.628C196.38 51.5422 196.177 51.3393 196.177 51.0907V50.0998C196.177 49.8516 196.38 49.6483 196.628 49.6483H198.985C199.233 49.6483 199.436 49.8514 199.436 50.0998V51.0907C199.436 51.3393 199.233 51.5422 198.985 51.5422Z" fill="#F39892"/>
<path d="M169.635 48.4153H166.431C166.077 48.4153 165.787 48.1256 165.787 47.7714V46.2627C165.787 45.9085 166.077 45.6188 166.431 45.6188H169.635C169.989 45.6188 170.279 45.9085 170.279 46.2627V47.7714C170.279 48.1256 169.99 48.4153 169.635 48.4153Z" fill="#9EC8FF"/>
<path d="M169.184 48.0215H166.883C166.628 48.0215 166.42 47.8133 166.42 47.559V46.4753C166.42 46.2207 166.628 46.0127 166.883 46.0127H169.184C169.439 46.0127 169.647 46.2209 169.647 46.4753V47.559C169.647 47.8133 169.439 48.0215 169.184 48.0215Z" fill="white"/>
<path d="M192.89 60.1746H189.686C189.332 60.1746 189.042 59.8849 189.042 59.5307V58.022C189.042 57.6678 189.332 57.3781 189.686 57.3781H192.89C193.244 57.3781 193.534 57.6678 193.534 58.022V59.5307C193.534 59.8849 193.244 60.1746 192.89 60.1746Z" fill="#9EC8FF"/>
<path d="M192.439 59.7811H190.137C189.883 59.7811 189.675 59.5729 189.675 59.3185V58.235C189.675 57.9804 189.883 57.7722 190.137 57.7722H192.439C192.694 57.7722 192.902 57.9806 192.902 58.235V59.3185C192.902 59.5729 192.694 59.7811 192.439 59.7811Z" fill="white"/>
<path d="M181.643 46.4333H179.133C178.963 46.4333 178.824 46.2944 178.824 46.1251C178.824 45.9554 178.963 45.8169 179.133 45.8169H181.643C181.813 45.8169 181.951 45.9556 181.951 46.1251C181.951 46.2946 181.813 46.4333 181.643 46.4333Z" fill="#9EC8FF"/>
<path d="M181.643 47.4023H179.133C178.963 47.4023 178.824 47.2636 178.824 47.0943C178.824 46.9246 178.963 46.7859 179.133 46.7859H181.643C181.813 46.7859 181.951 46.9247 181.951 47.0943C181.951 47.2636 181.813 47.4023 181.643 47.4023Z" fill="#9EC8FF"/>
<path d="M176.094 58.1264H173.583C173.413 58.1264 173.275 57.9877 173.275 57.8184C173.275 57.6487 173.413 57.51 173.583 57.51H176.094C176.263 57.51 176.402 57.6489 176.402 57.8184C176.402 57.9879 176.263 58.1264 176.094 58.1264Z" fill="#9EC8FF"/>
<path d="M176.094 59.0956H173.583C173.413 59.0956 173.275 58.957 173.275 58.7874C173.275 58.6179 173.413 58.4792 173.583 58.4792H176.094C176.263 58.4792 176.402 58.6179 176.402 58.7874C176.402 58.957 176.263 59.0956 176.094 59.0956Z" fill="#9EC8FF"/>
<path d="M163.079 50.7935H160.568C160.399 50.7935 160.26 50.6548 160.26 50.4855C160.26 50.3158 160.399 50.1771 160.568 50.1771H163.079C163.248 50.1771 163.387 50.316 163.387 50.4855C163.387 50.6548 163.248 50.7935 163.079 50.7935Z" fill="#9EC8FF"/>
<path d="M163.079 51.7623H160.568C160.399 51.7623 160.26 51.6236 160.26 51.4541C160.26 51.2845 160.399 51.1459 160.568 51.1459H163.079C163.248 51.1459 163.387 51.2845 163.387 51.4541C163.387 51.6236 163.248 51.7623 163.079 51.7623Z" fill="#9EC8FF"/>
<path d="M187.324 46.4333H184.814C184.644 46.4333 184.506 46.2944 184.506 46.1251C184.506 45.9554 184.644 45.8169 184.814 45.8169H187.324C187.494 45.8169 187.632 45.9556 187.632 46.1251C187.633 46.2946 187.494 46.4333 187.324 46.4333Z" fill="#9EC8FF"/>
<path d="M187.324 47.4023H184.814C184.644 47.4023 184.506 47.2636 184.506 47.0943C184.506 46.9246 184.644 46.7859 184.814 46.7859H187.324C187.494 46.7859 187.632 46.9247 187.632 47.0943C187.633 47.2636 187.494 47.4023 187.324 47.4023Z" fill="#9EC8FF"/>
<path d="M170.025 56.4085H166.306C165.985 56.4085 165.721 56.1454 165.721 55.8235V54.1537C165.721 53.832 165.985 53.5688 166.306 53.5688H170.025C170.347 53.5688 170.61 53.832 170.61 54.1537V55.8235C170.61 56.1454 170.347 56.4085 170.025 56.4085Z" fill="#9CD499"/>
<path d="M167.903 55.9405C167.899 55.9405 167.895 55.9405 167.892 55.9403C167.812 55.9372 167.736 55.9014 167.683 55.8414L166.988 55.0509C166.881 54.9299 166.893 54.7453 167.014 54.6387C167.135 54.5323 167.32 54.544 167.426 54.6652L167.918 55.2244L169.184 53.9853C169.3 53.8725 169.484 53.8745 169.598 53.9897C169.71 54.105 169.708 54.2898 169.593 54.4026L168.107 55.8573C168.052 55.9107 167.979 55.9405 167.903 55.9405Z" fill="white"/>
<path d="M187.4 44.451H183.681C183.36 44.451 183.096 44.1878 183.096 43.866V42.1961C183.096 41.8744 183.36 41.6113 183.681 41.6113H187.4C187.722 41.6113 187.985 41.8744 187.985 42.1961V43.866C187.985 44.1878 187.722 44.451 187.4 44.451Z" fill="#9CD499"/>
<path d="M185.278 43.9826C185.274 43.9826 185.27 43.9826 185.267 43.9825C185.187 43.9794 185.112 43.9436 185.059 43.8836L184.363 43.0931C184.256 42.9721 184.268 42.7875 184.389 42.6811C184.51 42.5743 184.695 42.5864 184.801 42.7073L185.293 43.2666L186.559 42.0276C186.674 41.9149 186.859 41.9169 186.972 42.032C187.085 42.1473 187.083 42.3322 186.968 42.4449L185.482 43.8994C185.427 43.9529 185.354 43.9826 185.278 43.9826Z" fill="white"/>
<path d="M185.408 56.2108C186.138 56.2108 186.729 55.6193 186.729 54.8895C186.729 54.1598 186.138 53.5682 185.408 53.5682C184.678 53.5682 184.087 54.1598 184.087 54.8895C184.087 55.6193 184.678 56.2108 185.408 56.2108Z" fill="#9EC8FF"/>
<path d="M168.298 60.241C169.028 60.241 169.619 59.6494 169.619 58.9197C169.619 58.1899 169.028 57.5984 168.298 57.5984C167.568 57.5984 166.977 58.1899 166.977 58.9197C166.977 59.6494 167.568 60.241 168.298 60.241Z" fill="#9EC8FF"/>
<path d="M177.281 74.9538H150.309C150.056 74.9538 149.852 74.7489 149.852 74.496V59.4644C149.852 59.2115 150.056 59.0066 150.309 59.0066H177.281C177.534 59.0066 177.739 59.2115 177.739 59.4644V74.496C177.739 74.7489 177.534 74.9538 177.281 74.9538Z" fill="#9EC8FF"/>
<path d="M176.701 74.2523H150.891C150.655 74.2523 150.464 74.0611 150.464 73.825V60.1375C150.464 59.9014 150.655 59.71 150.891 59.71H176.701C176.937 59.71 177.128 59.9014 177.128 60.1375V73.825C177.128 74.0611 176.937 74.2523 176.701 74.2523Z" fill="white"/>
<path d="M175.91 73.3603H151.681C151.415 73.3603 151.2 73.1449 151.2 72.8794V61.0811C151.2 60.8158 151.415 60.6005 151.681 60.6005H175.91C176.176 60.6005 176.391 60.8158 176.391 61.0811V72.8794C176.391 73.1449 176.176 73.3603 175.91 73.3603Z" fill="#9EC8FF"/>
<path d="M163.795 71.4073C166.24 71.4073 168.222 69.4252 168.222 66.9802C168.222 64.5351 166.24 62.553 163.795 62.553C161.35 62.553 159.368 64.5351 159.368 66.9802C159.368 69.4252 161.35 71.4073 163.795 71.4073Z" fill="white"/>
<path d="M163.795 70.7923C165.901 70.7923 167.607 69.0856 167.607 66.9802C167.607 64.8749 165.901 63.1682 163.795 63.1682C161.69 63.1682 159.983 64.8749 159.983 66.9802C159.983 69.0856 161.69 70.7923 163.795 70.7923Z" fill="#9EC8FF"/>
<path d="M165.674 66.7767L164.281 67.5812L162.887 68.3858V66.7767V65.1675L164.281 65.9724L165.674 66.7767Z" fill="white"/>
<path d="M148.082 20.8005H130.641C130.205 20.8005 129.849 20.4439 129.849 20.0076C129.849 19.5715 130.205 19.215 130.641 19.215H148.082C148.519 19.215 148.875 19.5715 148.875 20.0076C148.875 20.4439 148.518 20.8005 148.082 20.8005Z" fill="#9EC8FF"/>
<path d="M193.667 87.7895H176.226C175.79 87.7895 175.433 87.4326 175.433 86.9965C175.433 86.5606 175.79 86.2039 176.226 86.2039H193.667C194.103 86.2039 194.459 86.5606 194.459 86.9965C194.459 87.4326 194.103 87.7895 193.667 87.7895Z" fill="#9EC8FF"/>
<path d="M193.667 90.6966H176.226C175.79 90.6966 175.433 90.3399 175.433 89.9038C175.433 89.4677 175.79 89.111 176.226 89.111H193.667C194.103 89.111 194.459 89.4677 194.459 89.9038C194.459 90.3399 194.103 90.6966 193.667 90.6966Z" fill="#9EC8FF"/>
<path d="M193.667 93.8676H176.226C175.79 93.8676 175.433 93.5108 175.433 93.0749C175.433 92.6388 175.79 92.2819 176.226 92.2819H193.667C194.103 92.2819 194.459 92.6388 194.459 93.0749C194.459 93.5106 194.103 93.8676 193.667 93.8676Z" fill="#9EC8FF"/>
<path d="M159.313 23.8395H130.641C130.205 23.8395 129.849 23.4826 129.849 23.0466C129.849 22.6105 130.205 22.2538 130.641 22.2538H159.313C159.749 22.2538 160.106 22.6105 160.106 23.0466C160.106 23.4826 159.749 23.8395 159.313 23.8395Z" fill="#9EC8FF"/>
<path d="M35.5265 67.7791C30.9683 71.9409 32.9501 76.1027 36.3191 83.8319C39.6883 91.5609 40.2828 120.099 40.2828 120.099L37.5083 119.703C37.5083 119.703 37.9046 90.3719 34.1391 82.4446C30.3736 74.5172 28.7881 70.5535 25.4191 73.1301C22.0501 75.7062 35.5265 67.7791 35.5265 67.7791Z" fill="#74B570"/>
<path d="M38.0306 62.3905C37.477 59.9239 34.1895 57.2554 29.7934 54.9916C30.447 58.6294 32.5425 64.5771 30.3739 65.7971C27.4488 67.4427 30.0887 59.1381 28.9601 54.5736C24.8322 52.5578 19.8667 50.9102 15.2936 50.0906C15.3001 50.1077 15.305 50.1236 15.312 50.1406C17.8883 56.6808 21.2575 59.2571 19.8702 60.2481C18.8264 60.9935 15.4269 53.4391 10.9379 49.5665C7.56838 49.387 4.71797 49.8439 3.03137 51.1788C0.424923 53.2422 -1.32463 55.073 1.29696 61.3563C2.7947 62.4263 4.73421 63.1936 6.98811 63.4191C12.9336 64.0136 15.7081 64.2118 11.5463 66.1936C9.50825 67.164 6.09235 66.1387 3.3226 65.5143C4.22109 67.1699 5.32542 69.0439 6.66769 71.1783C7.51893 72.5317 8.45702 73.7072 9.45314 74.7232C11.3695 75.0903 13.04 75.0945 13.9245 74.7153C16.6991 73.5263 23.8337 69.7608 25.6173 71.3463C27.3631 72.8983 12.4041 73.8809 13.4407 77.8243C20.6915 82.0018 28.9885 80.0142 30.4551 76.1782C32.4247 71.0266 39.6973 69.8146 38.0306 62.3905Z" fill="#9CD499"/>
<path d="M23.0413 90.5698C30.9686 84.6243 39.0941 90.1735 43.256 96.5153C47.4178 102.857 44.4452 117.126 44.4452 117.126C44.4452 117.126 42.8597 117.126 42.8597 116.532C42.8597 115.937 47.2198 99.6864 36.9141 92.3535C30.467 87.7661 25.8158 89.9753 25.2213 92.1553C24.6268 94.3351 27.7976 98.299 27.7976 98.299L23.0413 90.5698Z" fill="#74B570"/>
<path d="M41.2738 78.3485C33.3465 78.3485 30.7701 90.6361 32.9501 97.7706C35.1301 104.905 38.103 118.183 38.103 118.183L40.0848 116.202C40.0848 116.202 32.554 97.5724 34.3375 89.2487C36.1212 80.9252 40.481 79.5377 41.2738 79.5377C42.0667 79.5377 41.2738 78.3485 41.2738 78.3485Z" fill="#9CD499"/>
<path d="M34.625 97.8258C34.0674 97.0872 33.3786 96.4768 32.5381 96.0723C32.6483 96.6626 32.7853 97.2315 32.9499 97.7705C33.9431 101.021 35.1009 105.547 36.0671 109.511C36.1549 109.004 36.2903 108.222 36.4992 107.014C36.5487 106.729 36.5872 106.42 36.6142 106.092C35.8383 103.451 35.1046 100.575 34.625 97.8258Z" fill="#74B570"/>
<path d="M32.4576 97.8854C17.3957 91.5434 25.3311 82.8411 12.0529 88.5883C11.1178 88.9932 9.97786 90.0139 8.83667 91.4215C10.0193 91.7567 11.4513 91.9979 13.044 91.7593C17.0076 91.1646 15.6203 94.3354 9.08027 95.1283C7.84748 95.2777 6.84735 95.4836 6.01564 95.775C2.90009 101.759 1.49578 109.633 8.08944 112.37C9.38865 112.909 10.9944 113.218 12.7821 113.333C14.8169 111.716 12.2856 102.358 15.4223 103.65C18.4338 104.89 14.4787 111.672 15.0207 113.381C17.9934 113.326 21.2844 112.841 24.4295 112.062C25.674 111.364 26.6243 110.429 26.917 109.199C27.908 105.037 21.3678 102.461 21.1697 98.8934C20.9875 95.614 23.5668 106.108 30.4001 107.653C36.5786 104.767 39.4982 100.85 32.4576 97.8854Z" fill="#9CD499"/>
<path d="M43.1896 86.6724C41.6042 83.3034 45.7659 82.5106 45.5677 85.0871C45.3922 87.3698 45.3727 92.9192 47.714 94.4303C51.7519 93.9927 57.2456 92.3657 61.3991 89.8854C61.4513 89.5504 61.4007 89.2053 61.2243 88.8524C59.4406 85.2852 47.9459 82.3124 51.5133 81.1234C54.3544 80.1764 59.3326 85.7661 63.3441 88.582C65.7536 86.7536 67.3678 84.5747 67.3678 82.1422C67.3678 78.8496 63.3673 75.1226 58.1936 73.3413C55.8652 73.576 53.7024 74.8491 50.3241 76.7634C45.3334 79.5915 46.4876 75.0192 51.2062 72.3054C47.1326 72.5162 43.0713 74.2568 40.0758 78.4144C40.0758 78.4144 40.3592 80.1917 38.4783 82.941C33.3468 90.4408 39.2689 94.8189 46.348 94.5346C45.948 92.5579 44.2851 89.0004 43.1896 86.6724Z" fill="#9CD499"/>
<path d="M23.518 90.2339C19.6423 93.2289 15.337 96.7304 10.0521 99.1087C4.76692 101.487 5.82381 109.239 5.82381 109.239C5.82381 109.239 5.03114 102.544 9.43531 100.254C13.8397 97.9635 16.7465 95.2328 20.0937 94.7045C23.441 94.1759 25.2908 93.6475 25.2908 93.6475C25.2908 93.6475 24.2339 91.5333 24.8503 90.7405C25.467 89.9476 23.518 90.2339 23.518 90.2339Z" fill="#74B570"/>
<path d="M4.41479 55.0657C18.5966 58.8534 28.9906 67.9262 30.9285 70.1284C32.8664 72.3304 32.8664 72.9471 32.8664 72.9471L31.3688 75.7658L30.6641 75.4134C30.6641 75.4134 31.8091 73.0351 28.8144 69.952C23.6496 64.6353 17.3633 60.4386 13.0469 58.589C8.73101 56.7393 4.41479 55.0657 4.41479 55.0657Z" fill="#74B570"/>
<path d="M43.5608 133.565H38.1424C34.2897 133.565 31.1665 130.441 31.1665 126.589V114.14H50.5369V126.589C50.5369 130.441 47.4137 133.565 43.5608 133.565Z" fill="#F39892"/>
</svg>
