<svg width="41" height="40" viewBox="0 0 41 40" fill="none" xmlns="http://www.w3.org/2000/svg">
  <path d="M37.7852 3.93213H33.4906V5.78546C33.4874 6.63542 33.1484 7.44969 32.5475 8.05083C31.9467 8.65197 31.1325 8.99126 30.2826 8.99478H28.2932C27.4433 8.99126 26.6292 8.65197 26.0283 8.05083C25.4274 7.44969 25.0884 6.63542 25.0852 5.78546V3.93213H15.7733V5.78546C15.7701 6.63542 15.4312 7.44969 14.8303 8.05083C14.2294 8.65197 13.4152 8.99126 12.5653 8.99478H10.5773C9.72711 8.99161 8.91264 8.65248 8.31146 8.0513C7.71028 7.45012 7.37113 6.63565 7.36797 5.78546V3.93213H3.07332C2.25971 3.93318 1.4796 4.2564 0.903663 4.83109C0.327723 5.40578 0.00281949 6.18515 0 6.99877V36.9333C0.00281949 37.747 0.327723 38.5264 0.903663 39.101C1.4796 39.6757 2.25971 39.999 3.07332 40H37.6959C38.5084 39.9975 39.287 39.6737 39.8616 39.0991C40.4362 38.5245 40.7601 37.7459 40.7625 36.9333V7.00544C40.7743 6.20336 40.4675 5.42936 39.9093 4.85321C39.3512 4.27706 38.5873 3.94581 37.7852 3.93213Z" fill="#EAEAEA" />
  <path d="M8.69863 15.9641H11.632C11.9103 15.9641 12.1772 16.0747 12.3739 16.2715C12.5707 16.4682 12.6813 16.7351 12.6813 17.0134V19.9468C12.6813 20.0844 12.6542 20.2207 12.6015 20.3478C12.5488 20.475 12.4717 20.5905 12.3743 20.6878C12.277 20.7851 12.1615 20.8623 12.0343 20.915C11.9072 20.9677 11.7709 20.9948 11.6333 20.9948H8.69863C8.5609 20.9948 8.42451 20.9676 8.29727 20.9149C8.17004 20.8621 8.05445 20.7848 7.95711 20.6873C7.85978 20.5899 7.78261 20.4742 7.73003 20.3469C7.67744 20.2196 7.65046 20.0832 7.65064 19.9454V17.0121C7.65064 16.7342 7.76105 16.4676 7.95759 16.2711C8.15412 16.0745 8.42069 15.9641 8.69863 15.9641V15.9641Z" fill="white" />
  <path d="M15.512 15.9641H18.4453C18.7233 15.9641 18.9898 16.0745 19.1864 16.2711C19.3829 16.4676 19.4933 16.7342 19.4933 17.0121V19.9454C19.4933 20.2234 19.3829 20.4899 19.1864 20.6865C18.9898 20.883 18.7233 20.9934 18.4453 20.9934H15.5107C15.2331 20.9934 14.9668 20.8832 14.7705 20.6869C14.5743 20.4906 14.464 20.2244 14.464 19.9468V17.0121C14.464 16.7342 14.5744 16.4676 14.7709 16.2711C14.9675 16.0745 15.234 15.9641 15.512 15.9641V15.9641Z" fill="white" />
  <path d="M25.2572 15.9641H22.3225C21.7437 15.9641 21.2745 16.4333 21.2745 17.0121V19.9454C21.2745 20.5242 21.7437 20.9934 22.3225 20.9934H25.2572C25.836 20.9934 26.3052 20.5242 26.3052 19.9454V17.0121C26.3052 16.4333 25.836 15.9641 25.2572 15.9641Z" fill="white" />
  <path d="M15.5107 22.6187H18.444C18.5816 22.6187 18.7179 22.6458 18.845 22.6984C18.9722 22.7511 19.0877 22.8283 19.185 22.9256C19.2823 23.0229 19.3595 23.1384 19.4122 23.2656C19.4649 23.3927 19.492 23.529 19.492 23.6666V26.6C19.492 26.7376 19.4649 26.8739 19.4122 27.001C19.3595 27.1282 19.2823 27.2437 19.185 27.341C19.0877 27.4383 18.9722 27.5155 18.845 27.5682C18.7179 27.6209 18.5816 27.648 18.444 27.648H15.512C15.234 27.648 14.9675 27.5376 14.7709 27.341C14.5744 27.1445 14.464 26.8779 14.464 26.6V23.6653C14.464 23.3877 14.5743 23.1215 14.7705 22.9252C14.9668 22.7289 15.2331 22.6187 15.5107 22.6187V22.6187Z" fill="white" />
  <path d="M25.2572 22.6187H22.3225C21.7437 22.6187 21.2745 23.0879 21.2745 23.6666V26.6C21.2745 27.1788 21.7437 27.648 22.3225 27.648H25.2572C25.836 27.648 26.3052 27.1788 26.3052 26.6V23.6666C26.3052 23.0879 25.836 22.6187 25.2572 22.6187Z" fill="white" />
  <path d="M29.1345 22.6187H32.0679C32.3458 22.6187 32.6124 22.7291 32.8089 22.9256C33.0055 23.1221 33.1159 23.3887 33.1159 23.6666V26.6C33.1159 26.8779 33.0055 27.1445 32.8089 27.341C32.6124 27.5376 32.3458 27.648 32.0679 27.648H29.1359C28.8576 27.648 28.5907 27.5374 28.3939 27.3406C28.1971 27.1438 28.0865 26.8769 28.0865 26.5986V23.6666C28.0865 23.3887 28.197 23.1221 28.3935 22.9256C28.59 22.7291 28.8566 22.6187 29.1345 22.6187V22.6187Z" fill="white" />
  <path d="M29.1306 34.2508H32.0639C32.3415 34.2497 32.6075 34.1389 32.8038 33.9426C33.0001 33.7463 33.1108 33.4804 33.1119 33.2027V30.2694C33.1108 29.9918 33.0001 29.7258 32.8038 29.5295C32.6075 29.3332 32.3415 29.2225 32.0639 29.2214H29.1306C28.8526 29.2218 28.5861 29.3323 28.3894 29.5287C28.1928 29.7251 28.082 29.9915 28.0812 30.2694V33.2027C28.0772 33.3416 28.1016 33.4798 28.1529 33.6089C28.2042 33.7379 28.2813 33.8552 28.3796 33.9533C28.4779 34.0515 28.5952 34.1285 28.7244 34.1797C28.8535 34.2308 28.9917 34.255 29.1306 34.2508Z" fill="white" />
  <path d="M8.69863 22.6187H11.632C11.9103 22.6187 12.1772 22.7292 12.3739 22.926C12.5707 23.1228 12.6813 23.3897 12.6813 23.668V26.6013C12.6813 26.7389 12.6542 26.8752 12.6015 27.0024C12.5488 27.1295 12.4717 27.245 12.3743 27.3424C12.277 27.4397 12.1615 27.5169 12.0343 27.5695C11.9072 27.6222 11.7709 27.6493 11.6333 27.6493H8.69863C8.5609 27.6493 8.42451 27.6222 8.29727 27.5694C8.17004 27.5167 8.05445 27.4393 7.95711 27.3419C7.85978 27.2444 7.78261 27.1287 7.73003 27.0014C7.67744 26.8741 7.65046 26.7377 7.65064 26.6V23.6666C7.65064 23.3887 7.76105 23.1221 7.95759 22.9256C8.15412 22.7291 8.42069 22.6187 8.69863 22.6187V22.6187Z" fill="white" />
  <path d="M22.3227 34.2508H25.256C25.5336 34.2497 25.7996 34.1389 25.9959 33.9426C26.1922 33.7463 26.3029 33.4804 26.304 33.2027V30.2694C26.3033 29.9917 26.1926 29.7256 25.9963 29.5292C25.7999 29.3328 25.5337 29.2221 25.256 29.2214H22.3227C22.0449 29.2221 21.7788 29.3328 21.5824 29.5292C21.386 29.7256 21.2754 29.9917 21.2747 30.2694V33.2027C21.2706 33.3415 21.2949 33.4796 21.3462 33.6085C21.3974 33.7375 21.4745 33.8547 21.5726 33.9528C21.6707 34.051 21.7879 34.128 21.9169 34.1792C22.0458 34.2305 22.1839 34.2548 22.3227 34.2508Z" fill="white" />
  <path d="M15.5106 34.2508H18.444C18.7217 34.2501 18.9878 34.1394 19.1842 33.943C19.3806 33.7466 19.4913 33.4805 19.492 33.2027V30.2694C19.4916 29.9916 19.3811 29.7252 19.1846 29.5288C18.9882 29.3323 18.7218 29.2218 18.444 29.2214H15.5106C15.233 29.2221 14.967 29.3328 14.7708 29.5293C14.5747 29.7257 14.4643 29.9918 14.464 30.2694V33.2027C14.4597 33.3414 14.4839 33.4795 14.535 33.6085C14.5861 33.7374 14.663 33.8546 14.761 33.9528C14.859 34.0509 14.9761 34.128 15.105 34.1792C15.2339 34.2305 15.372 34.2548 15.5106 34.2508Z" fill="white" />
  <path d="M10.532 7.18677H12.52C12.7107 7.18928 12.8999 7.15358 13.0766 7.08177C13.2532 7.00995 13.4137 6.90348 13.5485 6.76864C13.6834 6.6338 13.7898 6.47332 13.8616 6.29667C13.9335 6.12002 13.9692 5.93077 13.9667 5.7401V1.44679C13.969 1.25617 13.9331 1.06701 13.8613 0.890441C13.7894 0.713873 13.6829 0.553462 13.5481 0.418661C13.4133 0.28386 13.2529 0.177389 13.0763 0.105511C12.8998 0.0336328 12.7106 -0.00220236 12.52 0.000123668H10.532C10.3413 -0.00238552 10.1521 0.0333111 9.97542 0.105124C9.79877 0.176937 9.6383 0.283416 9.50346 0.418254C9.36862 0.553092 9.26215 0.713566 9.19034 0.890217C9.11853 1.06687 9.08282 1.25612 9.08533 1.44679V5.78545C9.10479 6.15859 9.2648 6.51052 9.53318 6.77049C9.80156 7.03046 10.1584 7.17919 10.532 7.18677Z" fill="#06C987" />
  <path d="M28.2493 7.18677H30.2373C30.4279 7.18928 30.6172 7.15358 30.7938 7.08177C30.9705 7.00995 31.131 6.90347 31.2658 6.76864C31.4006 6.6338 31.5071 6.47332 31.5789 6.29667C31.6507 6.12002 31.6864 5.93077 31.6839 5.7401V1.44679C31.6863 1.25617 31.6504 1.06701 31.5785 0.890441C31.5067 0.713873 31.4002 0.553462 31.2654 0.418661C31.1306 0.28386 30.9702 0.177389 30.7936 0.105511C30.6171 0.0336328 30.4279 -0.00220236 30.2373 0.000123668H28.2493C28.0586 -0.00238552 27.8694 0.033311 27.6927 0.105124C27.5161 0.176937 27.3556 0.283416 27.2207 0.418254C27.0859 0.553092 26.9794 0.713566 26.9076 0.890217C26.8358 1.06687 26.8001 1.25612 26.8026 1.44679V5.78544C26.8047 5.97271 26.8439 6.15771 26.9178 6.32975C26.9918 6.5018 27.0992 6.65746 27.2337 6.78776C27.3683 6.91806 27.5273 7.02042 27.7016 7.08891C27.8759 7.15739 28.062 7.19065 28.2493 7.18677Z" fill="#06C987" />
</svg>
