<svg width="32" height="32" viewBox="0 0 32 32" fill="none" xmlns="http://www.w3.org/2000/svg">
<path d="M13.9968 26.6668C13.9138 26.6668 13.8342 26.6339 13.7756 26.5752C13.7169 26.5165 13.6839 26.4369 13.6839 26.3539V25.6428C13.6843 25.359 13.7973 25.087 13.9981 24.8865C14.1989 24.686 14.4711 24.5733 14.7548 24.5733H15.4318V21.9308H12.5419V25.7395C12.5419 25.8613 12.5179 25.9819 12.4713 26.0944C12.4247 26.2069 12.3564 26.3091 12.2703 26.3952C12.1842 26.4813 12.0819 26.5496 11.9694 26.5962C11.8569 26.6428 11.7364 26.6668 11.6146 26.6668H4.92444C4.67901 26.6661 4.44388 26.568 4.27059 26.3942C4.0973 26.2204 4 25.985 4 25.7395V6.25794C4 6.01276 4.0974 5.77763 4.27076 5.60426C4.44413 5.43089 4.67927 5.3335 4.92444 5.3335H11.6089C11.7305 5.33331 11.8509 5.35707 11.9633 5.40343C12.0757 5.44979 12.1779 5.51783 12.264 5.60367C12.3501 5.68951 12.4185 5.79148 12.4652 5.90374C12.5119 6.016 12.536 6.13635 12.5362 6.25794V17.2091H25.147C25.2292 17.2091 25.3081 17.2417 25.3663 17.2999C25.4244 17.358 25.4571 17.4369 25.4571 17.5191C25.4571 17.6013 25.4244 17.6802 25.3663 17.7383C25.3081 17.7965 25.2292 17.8291 25.147 17.8291H12.5419V21.3122H26.9746C27.2453 21.3118 27.5048 21.2041 27.6962 21.0127C27.8876 20.8212 27.9954 20.5617 27.9957 20.291V17.8263H26.5735C26.4913 17.8263 26.4124 17.7936 26.3543 17.7355C26.2961 17.6773 26.2635 17.5985 26.2635 17.5163C26.2635 17.434 26.2961 17.3552 26.3543 17.297C26.4124 17.2389 26.4913 17.2062 26.5735 17.2062H27.9957V8.35572C27.9957 8.08489 27.8881 7.82516 27.6966 7.63365C27.5051 7.44215 27.2454 7.33456 26.9746 7.33456H13.6469C13.5641 7.33456 13.4847 7.30167 13.4262 7.24313C13.3676 7.18458 13.3348 7.10518 13.3348 7.02239C13.3348 6.93959 13.3676 6.86019 13.4262 6.80164C13.4847 6.7431 13.5641 6.71021 13.6469 6.71021H26.9746C27.4104 6.71134 27.828 6.88516 28.1359 7.19359C28.4438 7.50202 28.6169 7.91991 28.6172 8.35572V20.2882C28.6169 20.7237 28.4437 21.1413 28.1357 21.4493C27.8277 21.7573 27.4101 21.9305 26.9746 21.9308H20.091V22.1897C20.0939 22.2323 20.088 22.275 20.0737 22.3152C20.0594 22.3554 20.037 22.3922 20.0078 22.4234C19.9787 22.4546 19.9434 22.4794 19.9043 22.4964C19.8652 22.5134 19.8229 22.5222 19.7803 22.5222C19.7376 22.5222 19.6954 22.5134 19.6562 22.4964C19.6171 22.4794 19.5818 22.4546 19.5527 22.4234C19.5236 22.3922 19.5011 22.3554 19.4868 22.3152C19.4725 22.275 19.4666 22.2323 19.4695 22.1897V21.9308H16.0562V24.569H19.4695V23.5877C19.4666 23.5451 19.4725 23.5024 19.4868 23.4622C19.5011 23.422 19.5236 23.3852 19.5527 23.354C19.5818 23.3228 19.6171 23.298 19.6562 23.281C19.6954 23.264 19.7376 23.2552 19.7803 23.2552C19.8229 23.2552 19.8652 23.264 19.9043 23.281C19.9434 23.298 19.9787 23.3228 20.0078 23.354C20.037 23.3852 20.0594 23.422 20.0737 23.4622C20.088 23.5024 20.0939 23.5451 20.091 23.5877V24.569H20.768C21.0513 24.5698 21.3227 24.6828 21.5229 24.8832C21.7231 25.0837 21.8357 25.3553 21.8361 25.6386V26.3497C21.8363 26.3907 21.8284 26.4313 21.8128 26.4693C21.7972 26.5073 21.7743 26.5418 21.7454 26.5708C21.7164 26.5999 21.682 26.623 21.6441 26.6387C21.6063 26.6545 21.5656 26.6626 21.5246 26.6626L13.9968 26.6668ZM14.3083 25.6386V26.0439H21.2089V25.6386C21.2089 25.5201 21.1618 25.4065 21.0781 25.3228C20.9943 25.239 20.8807 25.192 20.7623 25.192H14.7548C14.6961 25.1918 14.6379 25.2032 14.5835 25.2256C14.5292 25.2479 14.4798 25.2808 14.4381 25.3223C14.3965 25.3638 14.3635 25.4131 14.341 25.4673C14.3184 25.5216 14.3068 25.5798 14.3068 25.6386H14.3083ZM6.56 20.3095L6.95538 22.339C6.97771 22.4528 6.97395 22.5701 6.94439 22.6822C6.91483 22.7943 6.86023 22.8982 6.78471 22.9861L4.63573 25.4366L4.62436 25.4522V25.7367C4.62473 25.8167 4.65657 25.8933 4.71299 25.95C4.76941 26.0067 4.84589 26.0389 4.92587 26.0396H11.6103C11.6908 26.0396 11.768 26.0078 11.825 25.951C11.8821 25.8942 11.9143 25.8172 11.9147 25.7367V25.4522L9.76284 22.9847C9.68636 22.8976 9.63103 22.794 9.60118 22.682C9.57133 22.57 9.56776 22.4526 9.59075 22.339L10.4967 17.8035C10.5223 17.6853 10.5743 17.5745 10.6489 17.4793L11.909 15.9148L11.9204 15.8992V6.25794C11.9202 6.21804 11.9121 6.17857 11.8966 6.14179C11.8811 6.10502 11.8585 6.07166 11.8301 6.04364C11.8017 6.01563 11.768 5.9935 11.731 5.97853C11.6941 5.96357 11.6545 5.95606 11.6146 5.95643H11.131L10.3829 6.82256C10.2802 6.94235 10.1528 7.03854 10.0094 7.10457C9.86608 7.17059 9.71018 7.2049 9.55235 7.20514H6.95964C6.79687 7.20649 6.63584 7.17157 6.48825 7.10294C6.34065 7.03431 6.21018 6.93367 6.10631 6.80834L5.42222 5.9735L5.40658 5.95643H4.92444C4.84459 5.9568 4.76812 5.98869 4.71166 6.04515C4.65519 6.10162 4.62331 6.17809 4.62293 6.25794V15.8921L5.8944 17.4793C5.96967 17.5737 6.02091 17.685 6.04373 17.8035L6.21582 18.6683C6.2255 18.7081 6.22645 18.7496 6.21859 18.7899C6.21074 18.8301 6.19427 18.8682 6.17031 18.9015C6.14819 18.9361 6.11925 18.9657 6.08526 18.9887C6.05126 19.0117 6.01294 19.0275 5.97262 19.0352C5.89227 19.0496 5.80946 19.0323 5.74157 18.9869C5.67369 18.9416 5.62601 18.8717 5.60853 18.792L5.43502 17.9287C5.43079 17.907 5.42154 17.8865 5.408 17.869L4.62293 16.8862V24.5107L6.31396 22.5765C6.32691 22.5603 6.33617 22.5415 6.34108 22.5214C6.346 22.5012 6.34645 22.4802 6.3424 22.4599L5.94844 20.4304C5.93209 20.3495 5.94851 20.2654 5.99412 20.1966C6.03972 20.1278 6.11076 20.0799 6.19164 20.0635C6.212 20.0618 6.23245 20.0618 6.2528 20.0635C6.32471 20.062 6.39484 20.0859 6.45098 20.1308C6.50711 20.1758 6.5457 20.239 6.56 20.3095ZM11.1396 17.869C11.1247 17.8847 11.1148 17.9045 11.1111 17.9259L10.2037 22.4599C10.2003 22.4805 10.2014 22.5017 10.2071 22.5219C10.2127 22.542 10.2227 22.5607 10.2364 22.5765L11.9246 24.5107V16.8862L11.1396 17.869ZM6.58844 6.41154C6.63362 6.46577 6.69016 6.50941 6.75405 6.53939C6.81795 6.56937 6.88764 6.58496 6.95822 6.58505H9.54667C9.61626 6.58487 9.68501 6.5698 9.7483 6.54086C9.81159 6.51191 9.86795 6.46976 9.9136 6.41723L10.3104 5.95643H6.21298L6.58844 6.41154ZM26.1525 19.5116C26.1525 19.4504 26.1707 19.3905 26.2047 19.3395C26.2387 19.2886 26.287 19.2488 26.3436 19.2253C26.4002 19.2018 26.4624 19.1956 26.5225 19.2074C26.5826 19.2193 26.6379 19.2487 26.6813 19.2919C26.7247 19.3351 26.7544 19.3902 26.7665 19.4503C26.7786 19.5103 26.7727 19.5726 26.7494 19.6293C26.7262 19.686 26.6867 19.7345 26.6359 19.7687C26.5851 19.803 26.5253 19.8214 26.464 19.8217C26.4232 19.8219 26.3827 19.814 26.3449 19.7985C26.3071 19.783 26.2728 19.7602 26.2438 19.7314C26.2149 19.7026 26.1919 19.6683 26.1763 19.6306C26.1606 19.5929 26.1525 19.5525 26.1525 19.5116ZM24.8412 19.5116C24.841 19.45 24.859 19.3896 24.893 19.3382C24.9271 19.2868 24.9756 19.2467 25.0325 19.2229C25.0894 19.1991 25.1521 19.1927 25.2126 19.2046C25.2731 19.2164 25.3287 19.246 25.3724 19.2895C25.4161 19.333 25.4459 19.3885 25.4581 19.4489C25.4702 19.5094 25.4641 19.5721 25.4406 19.6291C25.4171 19.6861 25.3771 19.7348 25.3259 19.7691C25.2746 19.8034 25.2144 19.8217 25.1527 19.8217C25.0706 19.8213 24.992 19.7885 24.9339 19.7305C24.8758 19.6724 24.843 19.5937 24.8427 19.5116H24.8412ZM23.5442 19.5116C23.5439 19.45 23.5619 19.3896 23.596 19.3382C23.63 19.2868 23.6786 19.2467 23.7355 19.2229C23.7923 19.1991 23.855 19.1927 23.9155 19.2046C23.976 19.2164 24.0317 19.246 24.0754 19.2895C24.1191 19.333 24.1489 19.3885 24.161 19.4489C24.1731 19.5094 24.1671 19.5721 24.1435 19.6291C24.12 19.6861 24.0801 19.7348 24.0288 19.7691C23.9776 19.8034 23.9173 19.8217 23.8556 19.8217C23.7736 19.8209 23.6952 19.788 23.6372 19.73C23.5792 19.6721 23.5463 19.5936 23.5456 19.5116H23.5442Z" fill="#909090"/>
</svg>
