<svg width="24" height="24" viewBox="0 0 24 24" fill="none" xmlns="http://www.w3.org/2000/svg">
<path d="M10.4974 4.00098H4.27306C4.12245 4.00098 4.00007 4.12336 4.00007 4.27375V10.4986C4.00007 10.6492 4.12245 10.7715 4.27306 10.7715H10.4976C10.6483 10.7715 10.7706 10.6489 10.7706 10.4986V4.27375C10.7704 4.12336 10.648 4.00098 10.4974 4.00098ZM4.54584 10.2256V4.54695H10.2245L10.2247 10.2256H4.54584Z" fill="#E0E0E0"/>
<path d="M19.7 13.2292H13.4752C13.325 13.2292 13.2029 13.3514 13.2029 13.502V19.727C13.2029 19.8776 13.325 20 13.4752 20H19.7C19.8508 19.9998 19.9734 19.8774 19.9734 19.7268V13.502C19.9734 13.3516 19.8508 13.2292 19.7 13.2292ZM19.4275 19.4538H13.7486V13.7752H19.4272L19.4275 19.4538Z" fill="#E0E0E0"/>
<path d="M19.7002 4H17.038C16.887 4 16.7648 4.12238 16.7648 4.27257C16.7648 4.42338 16.8874 4.54598 17.038 4.54598H19.4273V10.2246H13.7486V4.54598H15.6553C15.8057 4.54598 15.9283 4.42338 15.9283 4.27257C15.9283 4.12217 15.8057 4 15.6553 4H13.4757C13.325 4 13.2029 4.12238 13.2029 4.27257V10.4974C13.2029 10.648 13.325 10.7706 13.4757 10.7706H19.7002C19.8509 10.7706 19.9732 10.648 19.9732 10.4974V4.27257C19.9734 4.12238 19.8509 4 19.7002 4Z" fill="#E0E0E0"/>
<path d="M10.4974 13.2292H4.27306C4.12245 13.2292 4.00007 13.3514 4.00007 13.502V16.1647C4.00007 16.3153 4.12245 16.4379 4.27306 16.4379C4.42346 16.4379 4.54584 16.3155 4.54584 16.1647V13.7752H10.2245V19.4538H4.54584V17.5473C4.54584 17.3967 4.42346 17.2741 4.27306 17.2741C4.12245 17.2741 4.00007 17.3967 4.00007 17.5473V19.7268C3.99986 19.8774 4.12224 19.9998 4.27306 19.9998H10.4976C10.6483 19.9998 10.7706 19.8774 10.7706 19.7268V13.502C10.7704 13.3516 10.648 13.2292 10.4974 13.2292Z" fill="#E0E0E0"/>
</svg>
