<svg width="32" height="32" viewBox="0 0 32 32" fill="none" xmlns="http://www.w3.org/2000/svg">
<path d="M26.486 10.0396L16.8001 5.36458C16.7141 5.32313 16.6142 5.32313 16.5291 5.36458L6.84138 10.0396C6.73319 10.0914 6.66644 10.2015 6.66644 10.3206V21.6767C6.66644 21.7976 6.73319 21.9064 6.84138 21.9583L16.5291 26.6354C16.5709 26.6568 16.6191 26.6668 16.6642 26.6668C16.7108 26.6668 16.7583 26.6568 16.8001 26.6351L26.486 21.9586C26.5918 21.9068 26.661 21.7986 26.661 21.677V10.3206C26.6607 10.2018 26.5918 10.0914 26.486 10.0396ZM16.6642 5.99148L25.6312 10.3206L23.0331 11.5765C23.0169 11.5647 22.9977 11.5516 22.9788 11.5433L14.0722 7.24313L16.6642 5.99148ZM13.3666 7.59574L22.3205 11.9182L20.4871 12.8038L11.5371 8.48321L13.3666 7.59574ZM22.5311 12.5125V15.785L20.819 16.6124V13.3399L22.5311 12.5125ZM26.0374 21.4816L16.9771 25.8568V15.1932L19.1373 14.1496C19.2939 14.0747 19.3583 13.8872 19.2833 13.733C19.2083 13.5764 19.023 13.5121 18.8667 13.5871L16.6642 14.6495L15.7977 14.231C15.6417 14.156 15.4561 14.2228 15.3811 14.3764C15.3061 14.5327 15.3707 14.7202 15.5274 14.7954L16.3527 15.1932V25.8568L7.29151 21.4816V10.8183L14.1916 14.15C14.2355 14.1707 14.2809 14.1816 14.3272 14.1816C14.4415 14.1816 14.5543 14.1167 14.6082 14.0043C14.6832 13.8501 14.6177 13.6626 14.4623 13.5877L7.69776 10.3206L10.8024 8.82302L20.189 13.3539C20.189 13.3564 20.1918 13.3582 20.1942 13.36V17.1104C20.1942 17.2171 20.2479 17.317 20.3399 17.3749C20.3899 17.4066 20.4478 17.4231 20.506 17.4231C20.5514 17.4231 20.598 17.4124 20.6422 17.3914L22.9797 16.2623C23.0879 16.2098 23.1565 16.102 23.1565 15.9816V12.2101L26.0377 10.8186L26.0374 21.4816Z" fill="#909090"/>
<path d="M9.87061 20.2686L8.44707 19.5835C8.29134 19.5082 8.10574 19.5735 8.03046 19.7295C7.95549 19.8837 8.0204 20.0711 8.17705 20.1461L9.59724 20.8337C9.64143 20.8541 9.68715 20.8629 9.73286 20.8629C9.84959 20.8629 9.96174 20.7986 10.0139 20.688C10.0888 20.5316 10.0248 20.3433 9.87061 20.2686Z" fill="#909090"/>
<path d="M11.1771 19.4186L8.4486 18.1002C8.29561 18.0252 8.10818 18.0919 8.03321 18.2462C7.95824 18.4022 8.02254 18.5902 8.17889 18.6652L10.9056 19.9818C10.9498 20.0019 10.9955 20.0129 11.0415 20.0129C11.1582 20.0129 11.2689 19.9461 11.3225 19.8355C11.3975 19.6791 11.3329 19.4932 11.1771 19.4186Z" fill="#909090"/>
</svg>
