<svg width="16" height="16" viewBox="0 0 16 16" fill="none" xmlns="http://www.w3.org/2000/svg">
<path fill-rule="evenodd" clip-rule="evenodd" d="M11.5617 7.76508C11.5617 7.64235 11.6612 7.54286 11.7839 7.54286C11.9067 7.54286 12.0062 7.64235 12.0062 7.76508V10.8762C12.0062 11.4898 11.5087 11.9873 10.8951 11.9873H5.11111C4.49746 11.9873 4 11.4898 4 10.8762V5.09842C4 4.48477 4.49746 3.9873 5.11111 3.9873H8.22839C8.35112 3.9873 8.45061 4.0868 8.45061 4.20953C8.45061 4.33226 8.35112 4.43175 8.22839 4.43175H5.11111C4.74292 4.43175 4.44444 4.73023 4.44444 5.09842V10.8762C4.44444 11.2444 4.74292 11.5429 5.11111 11.5429H10.8951C11.2632 11.5429 11.5617 11.2444 11.5617 10.8762V7.76508ZM11.0521 4.05239L11.941 4.94128C12.0278 5.02806 12.0278 5.16877 11.941 5.25555L8.38543 8.8111C8.34376 8.85278 8.28723 8.87619 8.2283 8.87619H7.33941C7.21668 8.87619 7.11719 8.7767 7.11719 8.65397V7.76508C7.11719 7.70614 7.1406 7.64962 7.18227 7.60795L10.7378 4.05239C10.8246 3.96561 10.9653 3.96561 11.0521 4.05239ZM7.56163 7.85712L10.895 4.52379L11.4696 5.09841L8.13624 8.43174H7.56163V7.85712Z" fill="white"/>
</svg>
