<svg width="24" height="24" viewBox="0 0 24 24" fill="none" xmlns="http://www.w3.org/2000/svg">
<path d="M19.5014 8.70134C18.487 7.32763 17.314 6.08033 16.0148 4.99348C15.9153 4.91051 15.7675 4.92354 15.6845 5.02297C15.6013 5.12216 15.6143 5.27005 15.714 5.35325C16.9846 6.4161 18.1322 7.6362 19.1242 8.97974C19.2527 9.15391 19.2417 9.39802 19.098 9.56053C18.4253 10.3221 17.7336 11.078 17.0397 11.8101C17.0319 11.6682 17.023 11.526 17.0139 11.3836C17.319 11.0593 17.6271 10.7267 17.9316 10.3934C17.9738 10.3473 17.9962 10.286 17.9926 10.2234C17.9896 10.161 17.961 10.1022 17.9149 10.0604C17.9005 10.0478 17.8861 10.0348 17.8726 10.0213C17.6932 9.8419 17.594 9.60328 17.594 9.34933C17.594 9.09539 17.6932 8.857 17.873 8.67711C17.9249 8.625 17.9841 8.57814 18.0493 8.53837C18.1071 8.50271 18.1466 8.44374 18.1574 8.37654C18.1688 8.30934 18.1496 8.24077 18.1062 8.18843C17.3176 7.24398 16.4385 6.3649 15.4932 5.57519C15.4408 5.53153 15.3725 5.51302 15.3053 5.52376C15.2379 5.53473 15.1789 5.5745 15.1432 5.63256C15.1039 5.69679 15.0573 5.75622 15.0043 5.80925C14.8251 5.98867 14.5862 6.08764 14.3327 6.08764C14.0788 6.08764 13.8404 5.9889 13.6623 5.81085C13.6479 5.79645 13.6349 5.78182 13.6214 5.76719C13.5794 5.72056 13.5211 5.69245 13.4584 5.68925C13.3956 5.68605 13.3346 5.70799 13.2886 5.75005C12.3522 6.60444 11.431 7.48238 10.5485 8.36077C10.4009 8.36077 10.2532 8.36168 10.106 8.3626C11.4018 7.06432 12.7499 5.79462 14.1213 4.58343C14.2838 4.43988 14.5282 4.42891 14.7026 4.5576C14.8015 4.63051 14.8987 4.70388 14.9919 4.7752C15.0946 4.85405 15.2418 4.83485 15.3208 4.732C15.3995 4.62937 15.3798 4.48217 15.2776 4.40331C15.1821 4.33017 15.0824 4.25497 14.9807 4.18046C14.6306 3.92172 14.1382 3.9432 13.8111 4.23211C12.3129 5.55508 10.8422 6.94729 9.43722 8.37083C8.3234 8.39071 7.21095 8.44054 6.10421 8.52008C5.07016 8.59437 4.25417 9.39733 4.16366 10.4293C3.94537 12.9185 3.94537 15.4425 4.16366 17.9314C4.25394 18.9632 5.07016 19.7659 6.10399 19.8405C6.27313 19.8528 6.44227 19.864 6.61141 19.875C6.61644 19.8752 6.62147 19.8757 6.62672 19.8757C6.74924 19.8757 6.85209 19.7803 6.86032 19.6565C6.86855 19.5273 6.77072 19.4155 6.64158 19.4073C6.47358 19.3963 6.30558 19.3851 6.13759 19.373C5.33462 19.3152 4.7008 18.6921 4.6304 17.8908C4.41485 15.4288 4.41485 12.9324 4.6304 10.4707C4.7008 9.66933 5.33439 9.04579 6.13759 8.98819C9.06694 8.77745 12.0377 8.77745 14.9672 8.98819C15.7702 9.04579 16.4043 9.6691 16.4747 10.4707C16.5126 10.9025 16.5439 11.3402 16.5684 11.7754H14.6898C13.38 11.7754 12.3142 12.841 12.3142 14.1507C12.3142 15.4604 13.3794 16.5262 14.6898 16.5262H16.5718C16.5462 16.982 16.5142 17.44 16.4744 17.891C16.404 18.6924 15.77 19.3154 14.967 19.3733C12.5039 19.5504 10.0077 19.579 7.54763 19.4585C7.41872 19.4526 7.30855 19.552 7.30215 19.6811C7.29598 19.8105 7.39541 19.9205 7.52478 19.9271C8.5266 19.9755 9.53436 20 10.5437 20C12.0313 20 13.5218 19.947 15.0006 19.8405C16.0347 19.7662 16.8507 18.9632 16.9414 17.9314C16.9841 17.4437 17.0187 16.9481 17.0449 16.4556C17.3512 16.323 17.5663 16.0181 17.5663 15.6633V12.6373C17.5663 12.4428 17.5016 12.2634 17.3924 12.1191C18.0858 11.387 18.777 10.6321 19.449 9.87093C19.7384 9.54385 19.7601 9.05197 19.5014 8.70134ZM15.2079 7.93883C15.3556 7.79163 15.5949 7.7914 15.7423 7.93883C15.8897 8.08603 15.8897 8.32603 15.7423 8.47345C15.5947 8.62088 15.3554 8.62065 15.2079 8.47345C15.061 8.32603 15.061 8.08626 15.2079 7.93883ZM16.0107 8.86225C16.0326 8.84419 16.0539 8.82522 16.0744 8.80488C16.4043 8.47483 16.4043 7.93746 16.0744 7.6074C15.7441 7.27735 15.207 7.27735 14.877 7.6074C14.636 7.84809 14.5709 8.19849 14.6811 8.4986C13.5286 8.4218 12.3702 8.377 11.2105 8.36488C11.9353 7.65152 12.6838 6.94021 13.4429 6.24376C13.6943 6.4465 14.0047 6.55667 14.3323 6.55667C14.7112 6.55667 15.0676 6.40901 15.3352 6.14113C15.3506 6.12581 15.3656 6.11027 15.38 6.09404C16.1702 6.77107 16.9112 7.51186 17.5876 8.30134C17.5718 8.31597 17.5558 8.33083 17.5407 8.34614C17.2728 8.61403 17.1249 8.97037 17.1249 9.34956C17.1249 9.67687 17.2349 9.9875 17.4376 10.2387C17.2813 10.4092 17.1243 10.579 16.967 10.7475C16.959 10.6412 16.9501 10.5352 16.9407 10.4296C16.8836 9.7699 16.5291 9.20419 16.0107 8.86225ZM17.0975 15.6633C17.0975 15.8803 16.9211 16.0569 16.7039 16.0569H14.6895C13.6383 16.0569 12.7828 15.2016 12.7828 14.1502C12.7828 13.0986 13.6383 12.2437 14.6895 12.2437H16.7039C16.9208 12.2437 17.0975 12.4199 17.0975 12.6371V15.6633Z" fill="#E0E0E0"/>
<path d="M14.6896 12.9092C14.005 12.9092 13.4482 13.4662 13.4482 14.1508C13.4482 14.8351 14.005 15.3921 14.6896 15.3921C15.3741 15.3921 15.9309 14.8351 15.9309 14.1508C15.9309 13.4664 15.3739 12.9092 14.6896 12.9092ZM14.6896 14.9231C14.2635 14.9231 13.917 14.5764 13.917 14.1505C13.917 13.7245 14.2635 13.3777 14.6896 13.3777C15.1156 13.3777 15.4621 13.7245 15.4621 14.1505C15.4619 14.5764 15.1154 14.9231 14.6896 14.9231Z" fill="#E0E0E0"/>
</svg>
