<svg width="32" height="32" viewBox="0 0 32 32" fill="none" xmlns="http://www.w3.org/2000/svg">
<path d="M24.5827 9.58956L24.5444 9.56802V9.52424C24.5354 9.38922 24.5111 9.25521 24.4729 9.12539C24.4057 8.90221 24.295 8.69463 24.147 8.5146C23.999 8.33457 23.8165 8.18592 23.6105 8.07683L20.2967 6.30353C19.1049 5.66659 17.7742 5.3335 16.4228 5.3335C15.0715 5.3335 13.7408 5.66659 12.5489 6.30353L9.23443 8.07683C9.02872 8.18606 8.84717 8.33527 8.69938 8.51529C8.5516 8.69532 8.44055 8.90233 8.37349 9.12539C8.33385 9.25493 8.3098 9.38905 8.30122 9.52424V9.56802L8.26301 9.58956C7.25831 10.141 6.44519 10.9851 5.93173 12.0098C5.41826 13.0344 5.22874 14.1908 5.38834 15.3257L6.35559 22.0541C6.35934 22.7775 6.63055 23.4742 7.11717 24.0095C7.60379 24.5447 8.27148 24.8807 8.99123 24.9531H9.05377L9.0628 25.0142C9.1399 25.5005 9.39697 25.9404 9.78338 26.2455C10.1698 26.5507 10.6572 26.6987 11.1481 26.6611C11.639 26.6234 12.0976 26.4025 12.4329 26.0419C12.7682 25.6814 12.9555 25.2078 12.9575 24.7154V19.3462C12.9555 18.8538 12.7682 18.3802 12.4329 18.0197C12.0976 17.6591 11.639 17.4382 11.1481 17.4006C10.6572 17.3629 10.1698 17.5109 9.78338 17.8161C9.39697 18.1213 9.1399 18.5611 9.0628 19.0474L9.05377 19.1099H8.99123C8.61369 19.1483 8.24754 19.2599 7.91279 19.4386L7.81273 19.4942L7.79467 19.3802L7.17415 15.0582C7.06693 14.29 7.1944 13.5079 7.54034 12.8137C7.88629 12.1196 8.43426 11.5459 9.11213 11.169L9.15244 11.1475L9.19204 11.1704C9.45393 11.3178 9.74831 11.3973 10.0488 11.4018C10.3493 11.4062 10.6464 11.3357 10.9125 11.1961L12.6129 10.2865C12.6704 10.2554 12.7137 10.2033 12.7324 10.1406C12.7511 10.0779 12.7441 10.0098 12.7129 9.95228C12.6818 9.89472 12.629 9.85214 12.5663 9.83346C12.5036 9.81478 12.4356 9.82178 12.378 9.85291L10.6791 10.7604C10.5223 10.8422 10.3503 10.8908 10.1739 10.9029H10.1412C10.1199 10.9029 10.0987 10.9029 10.0773 10.9029C9.79106 10.9039 9.51253 10.8089 9.28655 10.6333C9.06056 10.4576 8.90033 10.2112 8.83071 9.93352C8.7611 9.65587 8.78592 9.36329 8.90228 9.10176C9.01865 8.84024 9.21922 8.62515 9.47208 8.49097L12.7852 6.71767C13.9058 6.12063 15.1559 5.80726 16.4256 5.80531C16.4583 5.80531 16.4881 5.80531 16.5194 5.80531C16.5431 5.80662 16.5673 5.80662 16.591 5.80531C17.8044 5.83067 18.9948 6.14005 20.0674 6.70794L23.3819 8.48125C23.6816 8.64146 23.9052 8.91415 24.0038 9.23935C24.1025 9.56454 24.0675 9.91526 23.9073 10.2149C23.747 10.5146 23.4743 10.7382 23.1492 10.8368C22.824 10.9355 22.4732 10.9012 22.1736 10.741L18.859 8.96765C18.1104 8.56813 17.2749 8.35895 16.4263 8.35895C15.5777 8.35895 14.7422 8.56813 13.9936 8.96765L13.5266 9.21642C13.4719 9.24916 13.4324 9.30226 13.4154 9.36373C13.3985 9.4252 13.406 9.49036 13.4363 9.54648C13.4666 9.60259 13.5167 9.64496 13.5774 9.66461C13.638 9.68425 13.7041 9.67981 13.7615 9.6521L14.2284 9.40473C14.905 9.0426 15.6603 8.853 16.4277 8.853C17.1951 8.853 17.9504 9.0426 18.627 9.40473L21.9415 11.1759C22.2073 11.3173 22.5048 11.3896 22.8059 11.3851C23.107 11.3806 23.4018 11.3001 23.6634 11.1509L23.7016 11.128L23.7419 11.1495C24.42 11.5262 24.9682 12.0994 25.3144 12.7936C25.6606 13.4878 25.7883 14.2704 25.6813 15.0387L25.0441 19.4741L24.9426 19.4185C24.6072 19.239 24.24 19.1273 23.8614 19.0898H23.8002L23.7898 19.0286C23.7157 18.5678 23.4806 18.1484 23.1262 17.8446C22.7718 17.5408 22.3214 17.3721 21.8546 17.3693C21.3354 17.3697 20.8376 17.5761 20.4704 17.9433C20.1033 18.3104 19.8969 18.8082 19.8965 19.3274V22.9025C19.8965 22.9678 19.9226 23.0308 19.9687 23.0769C20.0149 23.1231 20.0772 23.1485 20.1425 23.1485C20.2078 23.1485 20.2707 23.1231 20.3169 23.0769C20.363 23.0308 20.3891 22.9678 20.3891 22.9025V19.3274C20.3891 18.9387 20.543 18.5663 20.8179 18.2914C21.0928 18.0165 21.4659 17.862 21.8546 17.862C22.2434 17.862 22.6165 18.0165 22.8914 18.2914C23.1662 18.5663 23.3208 18.9387 23.3208 19.3274V24.6974C23.3208 25.0861 23.1662 25.4585 22.8914 25.7334C22.6165 26.0083 22.2434 26.1628 21.8546 26.1628C21.4659 26.1628 21.0928 26.0083 20.8179 25.7334C20.543 25.4585 20.3891 25.0861 20.3891 24.6974V24.2117C20.3891 24.1464 20.363 24.0841 20.3169 24.0379C20.2707 23.9918 20.2078 23.9657 20.1425 23.9657C20.0772 23.9657 20.0149 23.9918 19.9687 24.0379C19.9226 24.0841 19.8965 24.1464 19.8965 24.2117V24.6974C19.8962 25.191 20.0823 25.6658 20.4176 26.028C20.7529 26.3903 21.2124 26.6129 21.7045 26.6506C22.1967 26.6884 22.6854 26.5391 23.072 26.2323C23.4587 25.9255 23.7148 25.484 23.7898 24.9962L23.8002 24.935H23.8614C24.5799 24.8644 25.2465 24.5301 25.7334 23.9969C26.2203 23.4638 26.4931 22.7691 26.4984 22.0471L27.4671 15.3076C27.622 14.1745 27.4298 13.0211 26.9146 12.0001C26.3995 10.979 25.5861 10.1383 24.5827 9.58956ZM9.52767 19.3518C9.53953 18.9711 9.69962 18.61 9.97307 18.3449C10.2465 18.0798 10.6123 17.9314 10.9931 17.9314C11.374 17.9314 11.7397 18.0798 12.0132 18.3449C12.2867 18.61 12.4461 18.9711 12.4579 19.3518V24.721C12.464 24.9172 12.4308 25.1133 12.3599 25.2963C12.2891 25.4794 12.1818 25.6459 12.0452 25.7869C11.9085 25.9279 11.7451 26.0404 11.5643 26.117C11.3835 26.1935 11.1895 26.2323 10.9931 26.2323C10.7968 26.2323 10.6021 26.1935 10.4213 26.117C10.2405 26.0404 10.0771 25.9279 9.94042 25.7869C9.80377 25.6459 9.69721 25.4794 9.62634 25.2963C9.55546 25.1133 9.52155 24.9172 9.52767 24.721V19.3518ZM8.94189 19.6234L9.03292 19.6096V24.4639L8.94189 24.4493C8.35948 24.3661 7.82654 24.0758 7.44098 23.6314C7.05541 23.1871 6.84295 22.6188 6.8427 22.0305C6.84372 21.9475 6.85036 21.8643 6.86354 21.7824V21.7331C6.93043 21.2022 7.17043 20.7078 7.5459 20.3267C7.92138 19.9455 8.41213 19.6983 8.94189 19.6234ZM8.657 10.8674C7.94905 11.3111 7.38494 11.9504 7.03309 12.7081C6.68124 13.4659 6.55665 14.3096 6.67454 15.1367L7.34926 19.8326L7.31799 19.8625C7.27392 19.9058 7.23433 19.9536 7.19986 20.0049C7.17248 20.043 7.14301 20.0798 7.11161 20.1147L7.03031 20.2016C6.93194 20.3012 6.84366 20.4104 6.76696 20.5275L6.65022 20.7206L5.86502 15.259C5.72204 14.2678 5.87225 13.2567 6.29792 12.3503C6.72359 11.4438 7.40621 10.6817 8.26023 10.1587L8.34639 10.1058L8.37835 10.2031C8.37835 10.2188 8.39073 10.2341 8.39642 10.2483C8.40211 10.2625 8.41366 10.284 8.41935 10.3011L8.43603 10.3435C8.45338 10.3922 8.47446 10.4399 8.49787 10.4859C8.54833 10.582 8.6079 10.6729 8.67576 10.7576L8.73065 10.8292L8.657 10.8674ZM23.8954 24.4507L23.803 24.4653V19.6109L23.8954 19.6248C24.4252 19.7006 24.9155 19.9493 25.29 20.3315C25.6646 20.7138 25.9026 21.2088 25.9675 21.74V21.7894C25.9804 21.8713 25.9877 21.9545 25.9891 22.0374C25.9865 22.623 25.7736 23.1882 25.3901 23.6307C25.0066 24.0733 24.4775 24.3636 23.8982 24.4493L23.8954 24.4507ZM26.9661 15.2548L26.1823 20.7151L26.0641 20.5233C26.0303 20.4723 25.9916 20.4245 25.9488 20.3809C25.9175 20.3481 25.8862 20.3122 25.8577 20.2752L25.7827 20.1759C25.705 20.0622 25.6158 19.9565 25.5166 19.8611L25.4832 19.8312V19.7888L26.1538 15.1381C26.2721 14.3106 26.1476 13.4668 25.7952 12.7088C25.4428 11.9509 24.8775 11.3116 24.1685 10.8688L24.09 10.8188L24.1498 10.7479L24.1685 10.7194C24.2282 10.6428 24.2813 10.5615 24.3277 10.4762C24.3758 10.385 24.4164 10.2895 24.4479 10.1913L24.4805 10.0947L24.5674 10.1475C25.4239 10.6701 26.1082 11.4326 26.5352 12.3405C26.9623 13.2485 27.1133 14.2618 26.9695 15.2548H26.9661Z" fill="#909090"/>
</svg>
