<svg width="24" height="24" viewBox="0 0 24 24" fill="none" xmlns="http://www.w3.org/2000/svg">
<path d="M19.0995 8.8589H17.8054V6.68065C17.8054 6.61939 17.78 6.55814 17.7366 6.51494L15.2909 4.0688C15.2473 4.0256 15.1865 4.00023 15.125 4.00023H13.5314C13.2283 4.00023 13.2283 4.46902 13.5314 4.46902H14.8905V6.04934C14.8905 6.52682 15.2788 6.91493 15.756 6.91493H17.3364V10.1823L8.09033 10.1931C7.96919 10.1931 7.85353 10.1414 7.77216 10.0516V4.86582C7.77216 4.64685 7.95021 4.46879 8.16895 4.46879H12.1559C12.459 4.46879 12.459 4 12.1559 4H8.16918C7.69216 4 7.30382 4.38811 7.30382 4.86559V5.17347H7.0604C6.58315 5.17347 6.19481 5.56158 6.19481 6.03883V8.85845H4.89974C4.40375 8.85845 4.0001 9.26278 4.0001 9.75992V16.7392C4.0001 16.8858 4.1073 16.9733 4.2481 16.9733C4.38844 16.9733 4.46889 16.87 4.46889 16.7392V9.76038C4.46889 9.52175 4.66203 9.32769 4.89974 9.32769H6.31252C6.43549 9.32769 6.55298 9.38072 6.63435 9.47284L7.41765 10.3583C7.58839 10.551 7.83364 10.6616 8.09078 10.6616H14.6274V14.4741C14.6274 14.6389 14.8175 14.7708 14.9796 14.6766L16.2196 13.956L17.4591 14.6766C17.6129 14.7662 17.8116 14.652 17.8116 14.4741V10.6616H19.1005C19.3379 10.6616 19.5315 10.8557 19.5315 11.0943V19.0988C19.5315 19.3372 19.3379 19.5314 19.1005 19.5314H4.89974C4.66226 19.5314 4.46889 19.3372 4.46889 19.0988V17.9893C4.46889 17.6766 4.0001 17.6329 4.0001 17.9893V19.0988C4.0001 19.5954 4.40352 20 4.89974 20H19.1002C19.5962 20 19.9999 19.5954 19.9999 19.0988V9.75946C19.9999 9.26278 19.5958 8.8589 19.0995 8.8589ZM6.66338 8.93067V6.03929C6.66338 5.82055 6.84166 5.64249 7.0604 5.64249H7.30382V9.52221L6.98543 9.16244C6.89583 9.06073 6.7852 8.98256 6.66338 8.93067ZM15.7563 6.44614C15.5371 6.44614 15.3597 6.26831 15.3597 6.04934V4.80045L17.0054 6.44614H15.7563ZM17.3428 14.0671L16.3375 13.4826C16.2646 13.4401 16.1746 13.4401 16.1019 13.4826L15.0962 14.0671V10.6616H17.343V14.0671H17.3428ZM19.1002 10.1928H17.8052V9.32769H19.0993C19.3373 9.32769 19.5313 9.52129 19.5313 9.75946V10.3035C19.4035 10.2331 19.2563 10.1928 19.1002 10.1928Z" fill="#E0E0E0"/>
</svg>
