<svg width="32" height="32" viewBox="0 0 32 32" fill="none" xmlns="http://www.w3.org/2000/svg">
<path d="M7.83049 12.7144C7.89084 12.7726 7.96764 12.8016 8.04352 12.8016C8.12825 12.8016 8.20901 12.7681 8.2721 12.7038C9.91721 10.9764 12.5821 8.42883 16.0006 6.02638C16.4742 6.35796 16.9472 6.70387 17.4114 7.058C17.5509 7.16223 17.7475 7.1348 17.8508 6.99797C17.9554 6.85808 17.927 6.66212 17.7887 6.55819C17.259 6.15804 16.7174 5.76245 16.178 5.38973C16.0719 5.31475 15.9302 5.31475 15.822 5.38973C12.2755 7.85831 9.51371 10.4957 7.81708 12.2731C7.69884 12.3978 7.70432 12.5956 7.83049 12.7144Z" fill="#909090"/>
<path d="M26.6022 15.0347C26.5842 15.0122 25.5117 13.6182 23.5811 11.6579C23.6307 9.35149 23.4759 7.39125 23.4759 7.37052C23.4637 7.22454 23.35 7.10812 23.2068 7.0874C23.1675 7.0813 22.2111 6.95147 20.9656 7.08496C20.8178 7.10172 20.701 7.22302 20.6888 7.37083C20.6888 7.37905 20.6422 7.96024 20.6072 8.85411C20.0757 8.38996 19.5115 7.91483 18.9157 7.43787C18.7813 7.32968 18.5835 7.35224 18.4759 7.48542C18.3699 7.62134 18.3897 7.817 18.5259 7.92519C22.661 11.2413 25.3307 14.4456 25.9619 15.2313C25.7827 15.4599 25.4389 15.8564 25.0323 16.1081C24.1781 15.1396 20.1726 10.6873 16.1805 7.85632C16.0723 7.7789 15.9278 7.7789 15.8196 7.85632C11.8293 10.6873 7.82201 15.1396 6.96714 16.1081C6.5615 15.8564 6.21712 15.4599 6.03883 15.2313C6.24577 14.9732 6.66969 14.4563 7.28897 13.7666C7.40539 13.6374 7.39229 13.4396 7.26551 13.3247C7.13659 13.2098 6.9388 13.2208 6.8239 13.3497C5.90534 14.3746 5.41742 15.0079 5.39578 15.0347C5.31715 15.1414 5.31136 15.2871 5.38633 15.3977C5.41346 15.4395 6.05498 16.3891 6.90588 16.7847C6.94886 16.8039 6.99457 16.8146 7.03846 16.8146C7.12775 16.8146 7.21553 16.7765 7.27556 16.7061C7.28379 16.6957 7.45294 16.4994 7.75039 16.1663C7.66932 18.0455 7.60715 21.5701 7.78056 25.6871C6.97263 25.6167 6.51944 25.5598 6.50542 25.5598C6.33384 25.5372 6.17811 25.6594 6.15708 25.8313C6.13636 26.002 6.25887 26.158 6.43015 26.1793C6.46946 26.1854 10.4375 26.667 16.0007 26.667C21.5614 26.667 25.5309 26.1854 25.5724 26.1793C25.7427 26.1586 25.8643 26.002 25.8424 25.8313C25.8226 25.6597 25.6656 25.5372 25.495 25.5598C25.4806 25.5622 25.0205 25.6167 24.2046 25.6896C24.2308 25.1313 24.2491 24.5681 24.2659 24.0097C24.2723 23.8372 24.1336 23.6931 23.9638 23.6891C23.791 23.6845 23.6472 23.8205 23.6408 23.9908C23.624 24.5742 23.6033 25.1617 23.5771 25.7426C21.8948 25.8782 19.2174 26.041 16.001 26.041C12.7759 26.041 10.0907 25.8785 8.40929 25.7411C8.16578 20.1011 8.37942 16.0325 8.41599 15.4392C9.99375 13.7343 12.9908 10.6678 16.001 8.4951C19.0011 10.6617 21.9911 13.7203 23.5725 15.426C23.6039 15.9743 23.7411 18.641 23.6761 22.4762C23.6713 22.649 23.8096 22.791 23.9827 22.7928C23.9849 22.7928 23.9873 22.7928 23.9891 22.7928C24.1595 22.7928 24.2976 22.6581 24.3009 22.4868C24.3509 19.5614 24.282 17.3095 24.2342 16.1493C24.5426 16.4927 24.7157 16.6951 24.7236 16.7054C24.8153 16.8118 24.9674 16.8423 25.0915 16.7844C25.9457 16.3888 26.5885 15.4392 26.6135 15.3992C26.689 15.2874 26.6845 15.1414 26.6022 15.0347ZM22.9657 11.0414C22.4342 10.5181 21.8509 9.96467 21.2158 9.39324C21.235 8.62066 21.2722 8.00992 21.2926 7.68321C21.981 7.62652 22.5592 7.65639 22.8685 7.68138C22.9054 8.21228 22.9761 9.50996 22.9657 11.0414Z" fill="#909090"/>
<path d="M17.753 12.9145C17.753 11.9496 16.9655 11.1621 16.0006 11.1621C15.0339 11.1621 14.2488 11.9496 14.2488 12.9145C14.2488 13.8812 15.0339 14.6663 16.0006 14.6663C16.9655 14.6666 17.753 13.8812 17.753 12.9145ZM14.8739 12.9145C14.8739 12.2931 15.378 11.7872 16.0006 11.7872C16.6223 11.7872 17.1279 12.2931 17.1279 12.9145C17.1279 13.5371 16.622 14.0412 16.0006 14.0412C15.378 14.0415 14.8739 13.5371 14.8739 12.9145Z" fill="#909090"/>
<path d="M20.2393 16.6164C20.2348 16.4646 20.1257 16.3397 19.9757 16.3165C19.9376 16.3083 16.0842 15.7207 12.0256 16.3147C11.8757 16.3372 11.7639 16.4646 11.7584 16.6164C11.7584 16.6313 11.72 18.1618 11.7154 20.1123C11.7154 20.2833 11.8553 20.4247 12.0266 20.4247C12.2003 20.4247 12.3405 20.2848 12.3405 20.1123C12.3447 18.6434 12.3673 17.4164 12.378 16.8955C13.0801 16.8014 14.4007 16.7182 15.0654 16.685C15.7337 16.6664 16.3634 16.6731 16.9336 16.6914C17.8966 16.7413 19.2568 16.8498 19.6216 16.898C19.6402 17.7873 19.6941 20.7624 19.6234 23.4998C19.2586 23.5479 17.9003 23.6564 16.9397 23.7082C16.3637 23.7268 15.7316 23.7314 15.0608 23.7125C14.3964 23.6796 13.0774 23.5961 12.3749 23.5022C12.3606 22.9168 12.3496 22.2838 12.3463 21.6167C12.3438 21.4457 12.2045 21.3064 12.0333 21.3064H12.0296C11.858 21.3082 11.7187 21.4499 11.7212 21.6206C11.7273 22.3956 11.7386 23.1231 11.7575 23.7832C11.7629 23.935 11.8748 24.0624 12.0247 24.0831C13.3834 24.283 14.7213 24.3498 15.898 24.3498C18.2355 24.3498 19.9495 24.0874 19.9748 24.0831C20.1248 24.0599 20.2342 23.9332 20.2384 23.7832C20.339 20.4479 20.2424 16.6539 20.2393 16.6164Z" fill="#909090"/>
</svg>
