<svg width="24" height="20" viewBox="0 0 24 20" fill="none" xmlns="http://www.w3.org/2000/svg">
<path fill-rule="evenodd" clip-rule="evenodd" d="M11.727 12.7113C11.8949 12.5443 11.8956 12.2728 11.7287 12.105C10.949 11.3211 10.9492 10.0546 11.7291 9.271L13.5201 7.47141C14.3457 6.64179 15.6835 6.62565 16.5289 7.43509C16.5561 7.46112 16.5826 7.48793 16.6082 7.51548C17.3447 8.30689 17.3001 9.5455 16.5087 10.282L14.5672 12.0888C14.3938 12.2501 14.3841 12.5214 14.5454 12.6947C14.7067 12.8681 14.978 12.8778 15.1513 12.7165L17.0929 10.9097C18.231 9.85061 18.295 8.06942 17.2359 6.93132C17.199 6.8917 17.161 6.85315 17.1219 6.81572C15.9391 5.68323 14.0675 5.70582 12.9123 6.86653L11.1213 8.66612C10.0086 9.7842 10.0083 11.5912 11.1207 12.7096C11.2877 12.8775 11.5591 12.8783 11.727 12.7113ZM12.1272 11.2364C11.9593 11.4034 11.9586 11.6749 12.1256 11.8428C12.9047 12.6261 12.9037 13.892 12.1233 14.6741L10.2644 16.5369C9.48861 17.3144 8.2306 17.3197 7.44809 16.5485C6.66848 15.78 6.6595 14.525 7.42803 13.7453L9.30031 11.8461C9.46654 11.6774 9.4646 11.406 9.29597 11.2398C9.12734 11.0735 8.85589 11.0755 8.68965 11.2441L6.81737 13.1434C5.71637 14.2602 5.72924 16.0582 6.84639 17.1594C7.96452 18.2614 9.76256 18.2539 10.8714 17.1426L12.7303 15.2797C13.8443 14.1633 13.8457 12.3563 12.7336 11.2381C12.5666 11.0702 12.2951 11.0695 12.1272 11.2364Z" fill="#909090"/>
</svg>
