<svg width="24" height="20" viewBox="0 0 24 20" fill="none" xmlns="http://www.w3.org/2000/svg">
<path fill-rule="evenodd" clip-rule="evenodd" d="M11.4405 17.8926C8.48983 15.1688 6.99994 12.7621 6.99994 10.6476C6.99994 8.07029 9.08928 5.98096 11.6666 5.98096C14.2439 5.98096 16.3333 8.07029 16.3333 10.6476C16.3333 12.7621 14.8434 15.1688 11.8927 17.8926C11.765 18.0104 11.5682 18.0104 11.4405 17.8926ZM9 10.6476C9 12.1203 10.1939 13.3142 11.6667 13.3142C13.1394 13.3142 14.3333 12.1203 14.3333 10.6476C14.3333 9.17482 13.1394 7.98092 11.6667 7.98092C10.1939 7.98092 9 9.17482 9 10.6476ZM13.6666 10.6476C13.6666 11.7521 12.7712 12.6476 11.6666 12.6476C10.562 12.6476 9.6666 11.7521 9.6666 10.6476C9.6666 9.54301 10.562 8.64758 11.6666 8.64758C12.7712 8.64758 13.6666 9.54301 13.6666 10.6476ZM11.6665 6.64762C13.8757 6.64762 15.6665 8.43848 15.6665 10.6476C15.6665 12.4822 14.3421 14.6712 11.6665 17.1919C8.99094 14.6712 7.66653 12.4822 7.66653 10.6476C7.66653 8.43848 9.4574 6.64762 11.6665 6.64762Z" fill="#909090"/>
</svg>
