<svg width="24" height="24" viewBox="0 0 24 24" fill="none" xmlns="http://www.w3.org/2000/svg">
<path d="M19.1608 6.86674C17.8312 5.07177 15.5896 4 13.1656 4C13.0132 4 12.8893 4.12411 12.8893 4.27657C12.8893 4.42903 13.0132 4.55337 13.1656 4.55337C15.417 4.55337 17.4929 5.5424 18.7185 7.19931C19.4079 8.13142 19.7722 9.21393 19.7727 10.3298C19.7722 12.2055 18.7217 13.9725 16.9624 15.0569L16.6223 15.2665L16.7878 14.9028C17.1697 14.0619 17.3444 13.136 17.2943 12.2256C17.1112 8.85507 13.9718 6.21485 10.1462 6.21485C9.67329 6.21485 9.19763 6.2576 8.73272 6.34171L8.27215 6.42514L8.63329 6.12777C9.58323 5.34605 10.7574 4.83086 12.028 4.63817C12.1012 4.6272 12.1654 4.58834 12.2095 4.52868C12.2532 4.46926 12.2712 4.39634 12.2605 4.32343C12.239 4.17829 12.0955 4.06811 11.9455 4.0912C10.4916 4.312 9.16815 4.9168 8.11672 5.84045C7.80769 6.11222 7.52358 6.41302 7.27169 6.73417L7.25135 6.76022L7.22095 6.77257C6.43558 7.08434 5.72472 7.51771 5.10713 8.06056C3.74804 9.25553 2.99993 10.8475 2.99993 12.5431C2.99993 13.7065 3.36016 14.8436 4.04176 15.8313C4.12039 15.9453 4.31101 15.9812 4.4269 15.9017C4.55238 15.8153 4.58416 15.6427 4.49776 15.5168C3.8797 14.6217 3.5533 13.5934 3.5533 12.5431C3.5533 9.36227 6.51284 6.77439 10.1512 6.77439C13.6292 6.77439 16.5213 9.15016 16.7359 12.1828C16.9311 14.9771 14.7359 17.5495 11.6301 18.1664C11.5928 18.1739 11.3659 18.248 10.2753 18.6039L7.94255 19.3655L8.26689 18.3728C8.29043 18.3008 8.2838 18.2244 8.2486 18.1581C8.21272 18.0909 8.15306 18.0425 8.07992 18.0212C7.04129 17.7209 6.0941 17.1917 5.34141 16.4909C5.29318 16.4459 5.22713 16.4212 5.15444 16.4212C5.07444 16.4212 4.99993 16.4519 4.95033 16.5051C4.84701 16.6164 4.85318 16.792 4.96473 16.896C5.68175 17.5632 6.57249 18.0937 7.54026 18.4299L7.65341 18.4692L7.32746 19.4656C7.28655 19.5913 7.30735 19.7245 7.38392 19.8306C7.48724 19.973 7.67535 20.0349 7.84152 19.9803L11.7259 18.7117C13.4548 18.3641 15.0157 17.4331 16.0216 16.1533L16.042 16.1273L16.0728 16.1152C18.6564 15.0989 20.3261 12.8281 20.3261 10.33C20.3263 9.09302 19.9233 7.89553 19.1608 6.86674Z" fill="#E0E0E0"/>
</svg>
