<svg width="32" height="32" viewBox="0 0 32 32" fill="none" xmlns="http://www.w3.org/2000/svg">
<path d="M20.6077 26.6668C20.5387 26.6668 20.4725 26.6394 20.4237 26.5906C20.3749 26.5418 20.3475 26.4756 20.3475 26.4066C20.3475 26.3375 20.3749 26.2713 20.4237 26.2225C20.4725 26.1737 20.5387 26.1463 20.6077 26.1463H20.6803C20.9541 26.1463 21.2167 26.0375 21.4104 25.8439C21.604 25.6502 21.7128 25.3876 21.7128 25.1138V23.8338H10.1629V25.1138C10.1629 25.3874 10.2715 25.6498 10.4648 25.8434C10.6582 26.037 10.9204 26.1459 11.194 26.1463H18.9323C18.9932 26.148 19.0514 26.1717 19.0961 26.213C19.1408 26.2544 19.169 26.3105 19.1755 26.371C19.1759 26.3776 19.1776 26.384 19.1806 26.3898C19.1835 26.3957 19.1876 26.4009 19.1926 26.4051C19.1926 26.4743 19.1652 26.5406 19.1165 26.5897C19.0677 26.6387 19.0015 26.6665 18.9323 26.6668H11.194C10.7825 26.6661 10.3881 26.5022 10.0972 26.211C9.80632 25.9199 9.64277 25.5253 9.64239 25.1138V21.9024L9.60257 21.8896C8.73735 21.4968 8.00355 20.8632 7.48892 20.0644C6.9743 19.2657 6.70062 18.3356 6.70062 17.3854C6.70062 16.4352 6.9743 15.5051 7.48892 14.7064C8.00355 13.9076 8.73735 13.274 9.60257 12.8812L9.63528 12.8642V10.7223C9.64015 10.6564 9.66976 10.5948 9.71816 10.5498C9.76657 10.5049 9.83019 10.4799 9.89626 10.4799C9.96233 10.4799 10.0259 10.5049 10.0744 10.5498C10.1228 10.5948 10.1524 10.6564 10.1572 10.7223V12.6693L10.2255 12.6466C11.0242 12.4059 11.8709 12.3717 12.6864 12.547C13.502 12.7224 14.2597 13.1016 14.889 13.6492L14.9786 13.7275V10.4307C14.9789 10.22 15.0209 10.0114 15.1019 9.81692C15.183 9.62241 15.3016 9.44579 15.451 9.29718C15.6005 9.14857 15.7777 9.03088 15.9726 8.95084C16.1676 8.8708 16.3764 8.82999 16.5871 8.83074H21.7142V7.79963H10.1629V9.09101C10.1629 9.16022 10.1354 9.2266 10.0865 9.27555C10.0375 9.32449 9.97117 9.35198 9.90195 9.35198C9.83273 9.35198 9.76635 9.32449 9.71741 9.27555C9.66847 9.2266 9.64097 9.16022 9.64097 9.09101V6.88798C9.64097 6.47596 9.80455 6.08078 10.0958 5.7893C10.387 5.49782 10.782 5.33387 11.194 5.3335H20.6817C21.0936 5.33425 21.4884 5.49831 21.7795 5.78971C22.0707 6.08111 22.2344 6.47607 22.2347 6.88798V8.83074H23.5702C23.9945 8.83149 24.4011 9.00026 24.7013 9.30011C25.0014 9.59997 25.1705 10.0065 25.1716 10.4307V15.912C25.1709 16.3367 25.002 16.7439 24.7019 17.0445C24.4019 17.3452 23.995 17.5147 23.5702 17.5163H22.2347V25.1138C22.234 25.5254 22.0701 25.92 21.779 26.2111C21.4879 26.5022 21.0933 26.6661 20.6817 26.6668H20.6077ZM10.1629 23.3132H21.7128V17.5163H19.2381L17.9098 18.6867C17.8638 18.7276 17.8048 18.7508 17.7434 18.7522C17.7086 18.7527 17.674 18.7464 17.6417 18.7335C17.6094 18.7206 17.5799 18.7015 17.5551 18.6771C17.5302 18.6528 17.5104 18.6238 17.4968 18.5917C17.4833 18.5597 17.4762 18.5253 17.476 18.4905V17.5163H16.5999V17.5646C16.5554 18.8376 16.0191 20.0438 15.1037 20.9296L15.0867 20.9481V22.0588C15.0497 22.2963 14.9259 22.3234 14.8349 22.3234C14.7979 22.3241 14.761 22.3193 14.7254 22.3091L13.7142 21.8825L13.6957 21.891C13.0549 22.1824 12.3588 22.3323 11.6548 22.3305C11.1732 22.33 10.6942 22.26 10.2326 22.1228L10.1643 22.1001L10.1629 23.3132ZM7.22604 17.384C7.2283 18.5572 7.69557 19.6818 8.52545 20.5111C9.35534 21.3405 10.4802 21.807 11.6534 21.8085C12.3251 21.8115 12.9884 21.6597 13.5919 21.3648C13.6256 21.3483 13.6623 21.3391 13.6998 21.3376C13.7373 21.3362 13.7746 21.3425 13.8095 21.3563L14.5661 21.6763V20.8357C14.5664 20.8 14.5741 20.7647 14.5888 20.7321C14.6035 20.6995 14.6248 20.6704 14.6515 20.6466C15.0885 20.2399 15.4396 19.7496 15.6839 19.2049C15.9282 18.6601 16.0607 18.0719 16.0737 17.475V17.4338L16.0438 17.4224C15.7337 17.3106 15.4657 17.1058 15.2763 16.8359C15.087 16.5661 14.9855 16.2445 14.9857 15.9148V14.4699L14.9715 14.4556C14.558 13.9904 14.0517 13.6171 13.4851 13.3596C12.9185 13.1021 12.3042 12.9663 11.6819 12.9609H11.652C10.4791 12.9624 9.35466 13.4288 8.52504 14.2579C7.69542 15.0869 7.2283 16.2111 7.22604 17.384ZM15.5048 10.4307V15.912C15.5046 16.054 15.5325 16.1947 15.5869 16.326C15.6412 16.4572 15.721 16.5764 15.8215 16.6767C15.9221 16.777 16.0415 16.8565 16.1729 16.9105C16.3043 16.9645 16.4451 16.992 16.5871 16.9915H17.7363C17.8054 16.9918 17.8716 17.0196 17.9204 17.0686C17.9692 17.1176 17.9965 17.184 17.9965 17.2531V17.9145L18.9679 17.0611C19.0164 17.0209 19.077 16.9978 19.14 16.9957H23.5702C23.712 16.9959 23.8525 16.9681 23.9835 16.9139C24.1146 16.8597 24.2337 16.7802 24.3339 16.68C24.4342 16.5797 24.5137 16.4606 24.5679 16.3296C24.6221 16.1985 24.6499 16.0581 24.6497 15.9163V10.4307C24.6489 10.1449 24.5349 9.8711 24.3325 9.66928C24.1302 9.46746 23.856 9.35412 23.5702 9.35412H16.5871C16.4453 9.35374 16.3049 9.3813 16.1738 9.4352C16.0427 9.4891 15.9235 9.5683 15.823 9.66827C15.7225 9.76825 15.6426 9.88704 15.588 10.0179C15.5335 10.1487 15.5052 10.289 15.5048 10.4307ZM10.1629 6.88798V7.27767H21.7128V6.88798C21.7128 6.61439 21.6042 6.35197 21.4109 6.15838C21.2175 5.96478 20.9553 5.85583 20.6817 5.85545H11.194C11.0585 5.85545 10.9243 5.88217 10.7991 5.93408C10.6739 5.98598 10.5602 6.06206 10.4644 6.15796C10.3687 6.25386 10.2927 6.36769 10.241 6.49296C10.1893 6.61822 10.1627 6.75246 10.1629 6.88798ZM14.5263 25.2247C14.457 25.2239 14.3908 25.1959 14.3421 25.1466C14.2934 25.0974 14.266 25.0309 14.266 24.9616C14.2664 24.8928 14.294 24.827 14.3428 24.7785C14.3915 24.73 14.4575 24.7027 14.5263 24.7027H17.348C17.3822 24.7026 17.4161 24.7091 17.4477 24.722C17.4794 24.7349 17.5081 24.7539 17.5324 24.778C17.5567 24.802 17.5761 24.8306 17.5893 24.8621C17.6026 24.8936 17.6095 24.9274 17.6097 24.9616C17.6097 25.0311 17.5822 25.0978 17.5331 25.1471C17.4841 25.1964 17.4175 25.2243 17.348 25.2247H14.5263ZM24.6155 19.5358L24.4335 18.6597C24.4242 18.6242 24.423 18.5871 24.4302 18.5511C24.4373 18.5152 24.4526 18.4813 24.4747 18.4521C24.503 18.4209 24.5375 18.3959 24.5759 18.3788C24.6143 18.3616 24.6559 18.3527 24.698 18.3525C24.7562 18.3507 24.813 18.37 24.858 18.4069C24.903 18.4437 24.9331 18.4957 24.9427 18.5531L25.1275 19.432C25.1359 19.4671 25.1362 19.5037 25.1283 19.5389C25.1204 19.5742 25.1046 19.6072 25.082 19.6354C25.055 19.667 25.0214 19.6922 24.9836 19.7094C24.9457 19.7266 24.9046 19.7353 24.863 19.7349C24.8051 19.7369 24.7484 19.718 24.7033 19.6818C24.6581 19.6455 24.6275 19.5942 24.617 19.5372L24.6155 19.5358ZM26.2013 18.8859L25.6495 18.1861C25.6194 18.1509 25.6002 18.1076 25.5944 18.0616C25.5886 18.0156 25.5964 17.9689 25.6168 17.9273C25.6409 17.8797 25.6771 17.8394 25.7218 17.8104C25.7665 17.7815 25.8181 17.7648 25.8714 17.7623C25.9082 17.7634 25.9444 17.7728 25.9771 17.7898C26.0099 17.8068 26.0384 17.8309 26.0605 17.8604L26.6123 18.5616C26.6433 18.5964 26.6628 18.6399 26.6684 18.6861C26.674 18.7324 26.6654 18.7792 26.6436 18.8204C26.6215 18.8683 26.5865 18.9091 26.5426 18.9382C26.4986 18.9673 26.4474 18.9837 26.3947 18.9854C26.3571 18.9851 26.3201 18.9761 26.2865 18.9591C26.2529 18.9421 26.2238 18.9175 26.2013 18.8873V18.8859ZM6.20488 13.8498L5.45111 13.3747C5.40374 13.3464 5.36748 13.3028 5.34834 13.2511C5.32919 13.1993 5.32832 13.1426 5.34586 13.0903C5.36176 13.035 5.39406 12.9858 5.4385 12.9492C5.48293 12.9127 5.53742 12.8904 5.59475 12.8855C5.64572 12.8842 5.6957 12.8996 5.73697 12.9296L6.48933 13.4046C6.53568 13.4308 6.57177 13.4719 6.59166 13.5212C6.61156 13.5706 6.61409 13.6253 6.59884 13.6763C6.58397 13.7365 6.54979 13.7903 6.50151 13.8293C6.45323 13.8683 6.39351 13.8905 6.33146 13.8924C6.2859 13.8915 6.24173 13.8766 6.20488 13.8498ZM7.03546 12.83L6.57466 12.0635C6.54996 12.0279 6.53579 11.986 6.53378 11.9428C6.53177 11.8995 6.54199 11.8566 6.56328 11.8188C6.58967 11.7757 6.62664 11.7399 6.67069 11.715C6.71474 11.6902 6.76442 11.6769 6.81502 11.6766C6.85718 11.6767 6.89854 11.6881 6.93481 11.7096C6.97108 11.7311 7.00092 11.762 7.02124 11.7989L7.48204 12.5683C7.50647 12.6033 7.52039 12.6445 7.52215 12.6871C7.52392 12.7297 7.51345 12.7719 7.49199 12.8087C7.46476 12.8517 7.42721 12.8873 7.38275 12.9121C7.33829 12.9369 7.28834 12.9503 7.23742 12.9509C7.1956 12.9518 7.15436 12.941 7.1184 12.9196C7.08244 12.8983 7.05321 12.8672 7.03404 12.83H7.03546Z" fill="#909090"/>
</svg>
