<svg width="24" height="24" viewBox="0 0 24 24" fill="none" xmlns="http://www.w3.org/2000/svg">
<path d="M19.5705 15.8837C19.558 15.873 19.5456 15.8645 19.5326 15.8567C18.3472 14.8295 17.6738 13.3557 17.6738 11.8055V10.9975C17.6738 10.8339 17.5408 10.7009 17.3774 10.7009C17.2135 10.7009 17.0802 10.8339 17.0802 10.9975V11.8055C17.0802 13.5505 17.8448 15.2017 19.1774 16.3354C19.1856 16.3422 19.1945 16.3498 19.2048 16.3562C19.3006 16.4531 19.3454 16.5651 19.3454 16.6833C19.3454 16.9361 19.1399 17.1415 18.8871 17.1415H6.05145C5.79865 17.1415 5.59293 16.9361 5.59293 16.6833C5.59293 16.5665 5.63659 16.4551 5.71682 16.3699L5.73373 16.3557C5.74379 16.3498 5.7527 16.342 5.76185 16.3347C7.09396 15.2017 7.85808 13.5507 7.85808 11.8055V9.51023C7.85808 6.96761 9.94768 4.89926 12.5166 4.89926C12.5513 4.90452 12.5708 4.90612 12.5897 4.90612C12.7321 4.90612 12.8544 4.80578 12.8809 4.66726C12.9125 4.50612 12.808 4.34978 12.6476 4.31846C12.6041 4.30978 12.5458 4.30566 12.469 4.30566C9.59933 4.30566 7.26448 6.64029 7.26448 9.51023V11.8055C7.26448 13.3553 6.59156 14.8282 5.41785 15.8469C5.39339 15.8631 5.37945 15.8725 5.36688 15.8835C5.1335 16.0839 5.00002 16.3751 5.00002 16.6828C5.00002 17.2627 5.47156 17.7345 6.05168 17.7345H9.93465L9.94493 17.8039C10.1262 19.0558 11.2114 19.9998 12.4693 19.9998C13.7269 19.9998 14.8124 19.0558 14.9934 17.8039L15.0037 17.7347H18.8871C19.4668 17.7347 19.9385 17.2629 19.9385 16.683C19.939 16.3754 19.8046 16.0839 19.5705 15.8837ZM14.398 17.8321C14.2121 18.7443 13.4007 19.4067 12.4693 19.4067C11.5376 19.4067 10.7266 18.7443 10.5408 17.8316L10.5209 17.7347H14.4174L14.398 17.8321Z" fill="#E0E0E0"/>
<path d="M16.6603 9.50126C18.1771 9.50126 19.411 8.26743 19.411 6.75063C19.4112 5.23406 18.1771 4 16.6603 4C15.1435 4 13.9102 5.23406 13.9102 6.75063C13.9102 8.2672 15.1435 9.50126 16.6603 9.50126ZM16.6603 4.60846C17.8414 4.60846 18.8023 5.56937 18.8023 6.75063C18.8023 7.93189 17.8414 8.8928 16.6603 8.8928C15.4793 8.8928 14.5184 7.93189 14.5184 6.75063C14.5184 5.5696 15.4793 4.60846 16.6603 4.60846Z" fill="#E0E0E0"/>
</svg>
