<svg width="24" height="20" viewBox="0 0 24 20" fill="none" xmlns="http://www.w3.org/2000/svg">
<path fill-rule="evenodd" clip-rule="evenodd" d="M7.49945 5.98096C6.67129 5.98096 5.99994 6.65231 5.99994 7.48046V8.68401C5.99994 13.8186 10.1623 17.981 15.2969 17.981H16.4965C17.3246 17.981 17.996 17.3096 17.996 16.4815V14.9429C17.996 14.2975 17.583 13.7245 16.9707 13.5204L15.0613 12.8839C14.4198 12.6701 13.7146 12.9121 13.3395 13.4747L12.9023 14.1306C12.8272 14.2431 12.6862 14.2915 12.5579 14.2487L11.643 13.9437C10.895 13.6944 10.3211 13.0877 10.1136 12.3271L9.73748 10.948C9.6956 10.7944 9.78098 10.6349 9.93198 10.5846L10.2934 10.4641C10.9515 10.2447 11.3522 9.57917 11.2382 8.8949L10.9613 7.23395C10.8408 6.5109 10.2153 5.98096 9.48224 5.98096H7.49945ZM6.59979 8.684V7.48045C6.59979 6.98355 7.0026 6.58074 7.4995 6.58074H9.48229C9.9221 6.58074 10.2975 6.89871 10.3698 7.33254L10.6466 8.99349C10.7121 9.38663 10.4819 9.76901 10.1038 9.89505L9.74236 10.0155C9.28936 10.1665 9.03323 10.6451 9.15886 11.1058L9.53498 12.4849C9.7952 13.439 10.5151 14.2 11.4533 14.5127L12.3683 14.8177C12.7532 14.946 13.1763 14.8008 13.4014 14.4632L13.8386 13.8074C14.0637 13.4698 14.4868 13.3246 14.8717 13.4529L16.781 14.0894C17.1484 14.2118 17.3962 14.5556 17.3962 14.9429V16.4814C17.3962 16.9783 16.9934 17.3811 16.4965 17.3811H15.2969C10.4936 17.3811 6.59979 13.4873 6.59979 8.684Z" fill="#909090"/>
</svg>
