<?xml version="1.0" encoding="utf-8"?>
<!-- Generator: Adobe Illustrator 16.0.0, SVG Export Plug-In . SVG Version: 6.00 Build 0)  -->
<!DOCTYPE svg PUBLIC "-//W3C//DTD SVG 1.1//EN" "http://www.w3.org/Graphics/SVG/1.1/DTD/svg11.dtd">
<svg version="1.1" id="Layer_1" xmlns="http://www.w3.org/2000/svg" xmlns:xlink="http://www.w3.org/1999/xlink" x="0px" y="0px"
	 width="500px" height="500px" viewBox="0 0 500 500" enable-background="new 0 0 500 500" xml:space="preserve">
<path id="GPS" d="M250,0C146.631,0,62.5,84.717,62.5,188.843c0,147.998,169.873,300.781,177.1,307.202
	c2.979,2.637,6.689,3.955,10.4,3.955s7.422-1.318,10.4-3.931c7.227-6.445,177.1-159.229,177.1-307.227C437.5,84.717,353.369,0,250,0
	z M250,291.675c-57.446,0-104.175-46.729-104.175-104.175S192.554,83.325,250,83.325S354.175,130.054,354.175,187.5
	S307.446,291.675,250,291.675z"/>
</svg>
