<?xml version="1.0" encoding="utf-8"?>
<!-- Generator: Adobe Illustrator 16.0.0, SVG Export Plug-In . SVG Version: 6.00 Build 0)  -->
<!DOCTYPE svg PUBLIC "-//W3C//DTD SVG 1.1//EN" "http://www.w3.org/Graphics/SVG/1.1/DTD/svg11.dtd">
<svg version="1.1" id="Layer_1" xmlns="http://www.w3.org/2000/svg" xmlns:xlink="http://www.w3.org/1999/xlink" x="0px" y="0px"
	 width="500px" height="500px" viewBox="0 0 500 500" enable-background="new 0 0 500 500" xml:space="preserve">
<path id="Battery" d="M356.689,45.825h-50.586V8.96c0-4.761-4.199-8.96-8.936-8.96h-94.336c-5.273,0-8.936,4.199-8.936,8.96v36.865
	h-50.586c-23.73,0-42.676,18.97-42.676,42.676v368.823c0,23.706,18.945,42.676,42.676,42.676h213.379
	c23.73,0,42.676-18.97,42.676-42.676V88.501C399.365,64.795,380.42,45.825,356.689,45.825z M226.563,124.854h46.875
	c5.273,0,9.473,4.761,8.984,10.01l-14.795,178.613c-0.488,4.736-4.199,8.423-8.936,8.423h-17.92c-4.736,0-8.398-3.687-8.936-8.423
	L217.09,134.863C216.553,129.614,220.752,124.854,226.563,124.854z M282.91,410.962c0,5.249-4.199,8.936-8.936,8.936h-48.486
	c-4.736,0-8.936-4.199-8.936-8.936v-48.486c0-5.273,4.199-8.96,8.936-8.96h48.486c4.736,0,8.936,4.224,8.936,8.96V410.962z"/>
</svg>
