<?xml version="1.0" encoding="utf-8"?>
<!-- Generator: Adobe Illustrator 16.0.0, SVG Export Plug-In . SVG Version: 6.00 Build 0)  -->
<!DOCTYPE svg PUBLIC "-//W3C//DTD SVG 1.1//EN" "http://www.w3.org/Graphics/SVG/1.1/DTD/svg11.dtd">
<svg version="1.1" id="Layer_1" xmlns="http://www.w3.org/2000/svg" xmlns:xlink="http://www.w3.org/1999/xlink" x="0px" y="0px"
	 width="500px" height="500px" viewBox="0 0 500 500" enable-background="new 0 0 500 500" xml:space="preserve">
<path id="Water" d="M356.348,139.429C320.898,80.908,281.47,30.273,261.133,5.298C258.398,1.953,254.321,0,250,0
	s-8.398,1.953-11.133,5.298c-20.337,24.976-59.766,75.635-95.215,134.155C97.949,214.868,74.78,277.246,74.78,324.78
	C74.78,421.411,153.394,500,250,500s175.22-78.589,175.22-175.22C425.22,277.197,402.051,214.844,356.348,139.429z M274.048,435.474
	c-10.229,2.612-20.85,3.931-31.567,3.931c-65.454,0-118.726-49.463-118.726-110.278c0-14.673,3.882-31.836,11.523-50.977
	c1.294-3.223,4.956-5.078,8.594-4.297c3.613,0.781,6.03,3.931,5.664,7.373c-0.439,4.102-0.659,8.105-0.659,11.914
	c0,66.187,53.32,121.582,124.023,128.882c3.516,0.366,6.25,3.003,6.543,6.299C279.712,431.592,277.466,434.595,274.048,435.474z"/>
</svg>
