<?xml version="1.0" encoding="utf-8"?>
<!-- Generator: Adobe Illustrator 16.0.0, SVG Export Plug-In . SVG Version: 6.00 Build 0)  -->
<!DOCTYPE svg PUBLIC "-//W3C//DTD SVG 1.1//EN" "http://www.w3.org/Graphics/SVG/1.1/DTD/svg11.dtd">
<svg version="1.1" id="Layer_1" xmlns="http://www.w3.org/2000/svg" xmlns:xlink="http://www.w3.org/1999/xlink" x="0px" y="0px"
	 width="660px" height="500px" viewBox="0 0 660 500" enable-background="new 0 0 660 500" xml:space="preserve">
<path id="Connectivity" d="M330,384.619c-31.812,0-57.69,25.879-57.69,57.69S298.188,500,330,500s57.69-25.879,57.69-57.69
	S361.812,384.619,330,384.619z M330,256.421c-58.154,0-110.156,26.855-144.287,68.799l62.695,62.695
	c0,0,29.248-41.724,81.592-41.724c51.294,0,81.592,41.724,81.592,41.724l62.695-62.695C440.156,283.276,388.154,256.421,330,256.421
	z M330,0C123.75,0,8.271,138.745,3.95,143.457l63.647,63.647C132.197,135.107,225.898,89.746,330,89.746
	s197.803,45.361,262.402,117.358l63.647-63.647C651.729,138.745,535.981,0,330,0z M330,128.198
	c-93.506,0-177.588,41.089-235.181,106.128l63.599,63.599c41.187-48.877,102.808-79.98,171.582-79.98s130.396,31.104,171.582,79.98
	l63.599-63.599C507.588,169.287,423.506,128.198,330,128.198z"/>
</svg>
