<?xml version="1.0" encoding="utf-8"?>
<!-- Generator: Adobe Illustrator 16.0.0, SVG Export Plug-In . SVG Version: 6.00 Build 0)  -->
<!DOCTYPE svg PUBLIC "-//W3C//DTD SVG 1.1//EN" "http://www.w3.org/Graphics/SVG/1.1/DTD/svg11.dtd">
<svg version="1.1" id="Layer_1" xmlns="http://www.w3.org/2000/svg" xmlns:xlink="http://www.w3.org/1999/xlink" x="0px" y="0px"
	 width="500px" height="500px" viewBox="0 0 500 500" enable-background="new 0 0 500 500" xml:space="preserve">
<path id="Overheat" d="M153.998,500c-66.455-183.154,74.023-250.024,74.023-250.024c-9.814,97.729,56.592,173.877,56.592,173.877
	c24.414-6.177,71.069-34.961,71.069-34.961c0,34.961-24.609,111.06-24.609,111.06s86.133-55.688,113.257-148.169
	c27.075-92.48-51.587-185.327-51.587-185.327c4.761,65.454-21.753,129.834-73.657,179.028c2.612-2.515,4.785-5.298,6.445-8.301
	c9.326-15.601,24.316-56.104,15.527-149.927C328.729,55.542,185.98,0,185.98,0c12.329,80.249-24.585,98.73-110.986,251.05
	C-11.432,403.345,153.998,500,153.998,500z"/>
</svg>
