<?xml version="1.0" encoding="utf-8"?>
<!-- Generator: Adobe Illustrator 16.0.0, SVG Export Plug-In . SVG Version: 6.00 Build 0)  -->
<!DOCTYPE svg PUBLIC "-//W3C//DTD SVG 1.1//EN" "http://www.w3.org/Graphics/SVG/1.1/DTD/svg11.dtd">
<svg version="1.1" id="Layer_1" xmlns="http://www.w3.org/2000/svg" xmlns:xlink="http://www.w3.org/1999/xlink" x="0px" y="0px"
	 width="500px" height="500px" viewBox="0 0 500 500" enable-background="new 0 0 500 500" xml:space="preserve">
<path id="Sensitivity" d="M123.858,165.82c-3.418-11.621-6.714-23.242-9.18-34.399c-16.284-9.619-27.344-27.124-27.344-47.388
	c0-30.444,24.756-55.2,55.2-55.2s55.2,24.78,55.2,55.2c0,4.199-0.562,8.228-1.44,12.158c5.273,11.621,9.546,24.707,13.281,38.037
	c10.522-14.038,16.992-31.274,16.992-50.195C226.568,37.598,188.971,0,142.535,0S58.526,37.598,58.526,84.033
	C58.526,124.023,86.48,157.324,123.858,165.82z M65.826,364.795c20.703-22.388,43.945-13.623,75.073-8.887
	c26.733,4.102,53.052-3.394,51.294-17.822c-2.759-23.364-6.665-33.813-15.527-64.087c-7.056-24.048-20.483-67.432-32.715-108.887
	c-16.357-55.493-21.094-81.25,0.684-87.671c23.486-6.836,36.938,26.514,49.146,72.778c13.892,52.637,21.191,75.903,25.293,74.658
	c7.202-2.051-2.637-24.585,16.211-30.151c23.584-6.836,28.149,11.597,34.741,9.741c6.629-2.002,4.37-20.654,23.182-26.147
	c18.896-5.469,28.393,17.798,36.182,15.479c7.715-2.271,7.543-10.669,19.189-14.014c11.67-3.467,55.615,16.211,80.736,102.075
	c31.543,107.959-4.004,128.027,6.787,164.6L295.281,500c-11.4-27.417-46.716-29.443-77.966-46.924
	c-31.47-17.7-52.832-52.222-134.863-50.537C51.617,403.149,53.082,378.564,65.826,364.795z"/>
</svg>
