<?xml version="1.0" encoding="utf-8"?>
<!-- Generator: Adobe Illustrator 16.0.0, SVG Export Plug-In . SVG Version: 6.00 Build 0)  -->
<!DOCTYPE svg PUBLIC "-//W3C//DTD SVG 1.1//EN" "http://www.w3.org/Graphics/SVG/1.1/DTD/svg11.dtd">
<svg version="1.1" id="Layer_1" xmlns="http://www.w3.org/2000/svg" xmlns:xlink="http://www.w3.org/1999/xlink" x="0px" y="0px"
	 width="500px" height="500px" viewBox="0 0 500 500" enable-background="new 0 0 500 500" xml:space="preserve">
<path id="Signal" d="M100.295,323.001c-5.542-2.563-12.036-1.66-16.699,2.319l-62.499,53.441c-3.467,2.954-5.469,7.299-5.469,11.865
	v93.748c0,8.618,7.007,15.625,15.625,15.625h62.499c8.618,0,15.625-7.007,15.625-15.625V337.186
	C109.377,331.105,105.813,325.564,100.295,323.001z M225.293,215.825c-5.518-2.563-12.036-1.66-16.699,2.319l-62.499,53.417
	c-3.466,2.979-5.468,7.324-5.468,11.891v200.924c0,8.618,7.006,15.625,15.625,15.625h62.499c8.618,0,15.625-7.007,15.625-15.625
	V230.009C234.375,223.906,230.811,218.364,225.293,215.825z M350.268,108.649c-5.518-2.563-12.012-1.66-16.676,2.295l-62.498,53.441
	c-3.467,2.979-5.469,7.324-5.469,11.865v308.125c0,8.618,7.006,15.625,15.625,15.625h62.498c8.619,0,15.625-7.007,15.625-15.625
	V122.833C359.373,116.729,355.833,111.212,350.268,108.649z M475.266,1.448c-5.494-2.563-12.061-1.685-16.676,2.319l-62.498,53.441
	c-3.467,2.954-5.469,7.3-5.469,11.865v415.301c0,8.618,7.006,15.625,15.625,15.625h62.498c8.618,0,15.625-7.007,15.625-15.625
	V15.633C484.371,9.554,480.831,3.987,475.266,1.448z"/>
</svg>
