<svg width="24" height="24" viewBox="0 0 24 24" fill="none" xmlns="http://www.w3.org/2000/svg">
<path d="M18.9882 8.84613L15.4347 7.43497C15.3093 7.38537 15.1675 7.44639 15.1177 7.57165C15.0681 7.69713 15.1294 7.83884 15.2546 7.88867L18.8079 9.29983C18.9686 9.36337 19.095 9.48588 19.1633 9.6445C19.2317 9.8029 19.2342 9.97867 19.1704 10.1393L17.0267 15.536C16.9833 15.6455 16.9108 15.741 16.8178 15.8119C16.7104 15.8935 16.6893 16.0464 16.7705 16.1538C16.8402 16.245 16.9611 16.274 17.0617 16.2306C17.0793 16.2233 17.0966 16.213 17.1124 16.2007C17.2767 16.0761 17.4038 15.9086 17.4799 15.7163L19.6239 10.3195C19.7359 10.0379 19.7311 9.72953 19.6108 9.45114C19.4911 9.17297 19.2698 8.95812 18.9882 8.84613Z" fill="#E0E0E0"/>
<path d="M11.8643 7.46917L9.17597 6.73045L10.0244 6.24795C10.3122 6.08429 10.6532 6.06052 10.9608 6.18281L14.3381 7.52402C14.401 7.54894 14.4675 7.54597 14.5246 7.52128C14.5822 7.4966 14.63 7.44974 14.6547 7.38734C14.7045 7.26209 14.6432 7.12015 14.518 7.07055L11.1409 5.7291C10.6948 5.55174 10.1999 5.58625 9.78258 5.82373L8.97529 6.28315L6.28805 4.28297C5.65424 3.81122 4.75484 3.94287 4.28285 4.57691C3.97818 4.9865 3.91441 5.53231 4.11669 6.00132C4.21588 6.23126 4.37496 6.43217 4.57702 6.58234L6.50885 8.02047C6.38954 8.24675 6.31639 8.49748 6.29857 8.75667L5.5315 10.2017C5.30637 10.6256 5.28625 11.1214 5.47642 11.5623L6.49262 13.9179C6.5461 14.0416 6.68964 14.0987 6.81352 14.0454C6.93695 13.992 6.99432 13.8484 6.94061 13.7248L5.92463 11.3692C5.79344 11.065 5.80692 10.723 5.96235 10.4307L7.03432 8.41154L7.63979 8.86227C7.61373 8.96718 7.60207 9.07347 7.60367 9.17815C7.60596 9.3354 7.63841 9.49517 7.7047 9.64831C7.77121 9.80236 7.86538 9.93561 7.97875 10.0453C8.09166 10.1548 8.2272 10.2449 8.38216 10.3063C8.67838 10.4243 9.00158 10.4234 9.2962 10.3052L9.29734 10.3047C9.30168 10.3029 9.30602 10.3011 9.3106 10.2993C9.31105 10.299 9.31151 10.299 9.31174 10.2988C9.31677 10.2965 9.32157 10.2947 9.32637 10.2926C9.33117 10.2906 9.33597 10.2883 9.34077 10.2862C9.34122 10.286 9.34168 10.2855 9.34191 10.2855C9.34648 10.2837 9.35082 10.2817 9.35517 10.2796L9.35631 10.2791C9.6443 10.1459 9.86669 9.91116 9.98418 9.61494C10.1017 9.31872 10.101 8.99552 9.98303 8.70068C9.98303 8.70022 9.98258 8.69999 9.98235 8.69953C9.98075 8.69519 9.97869 8.69085 9.97709 8.6865C9.97686 8.68605 9.97686 8.68559 9.97663 8.68513C9.97458 8.68011 9.97252 8.67531 9.97046 8.67028C9.9684 8.66548 9.96589 8.66068 9.96383 8.65588C9.96383 8.65565 9.96338 8.65496 9.96315 8.65451C9.96109 8.65016 9.95926 8.64582 9.9572 8.64148C9.9572 8.64125 9.9572 8.64079 9.95698 8.64033C9.82327 8.35211 9.58876 8.12995 9.29277 8.01224C9.13734 7.95053 8.97712 7.92264 8.81987 7.92516C8.66193 7.92721 8.50193 7.95967 8.34834 8.02595C8.19451 8.09224 8.06126 8.18641 7.95132 8.29977C7.91658 8.33543 7.88412 8.37314 7.85395 8.41314L7.26517 7.97498C7.29008 7.94778 7.56024 7.18438 8.42765 7.11535C8.44205 7.11558 8.45622 7.11489 8.47062 7.11261C8.61187 7.10575 8.75655 7.12106 8.89964 7.16061L11.7345 7.93933C12.0536 8.02687 12.3119 8.25155 12.4431 8.55554L15.7879 16.3078C15.9291 16.6351 15.7776 17.0163 15.4505 17.1573L10.1195 19.459C9.79218 19.6003 9.41093 19.4489 9.26968 19.1216L7.32779 14.6207C7.27431 14.4971 7.13077 14.4399 7.00712 14.4934C6.88324 14.5467 6.82632 14.69 6.87958 14.8141L8.82169 19.3148C9.06946 19.8894 9.73824 20.155 10.3126 19.9072L15.6446 17.6067C16.2194 17.3587 16.4846 16.6899 16.2368 16.1158L12.8917 8.36286C12.7018 7.92196 12.3274 7.59648 11.8643 7.46917ZM8.54262 8.47485C8.63153 8.43646 8.72798 8.4152 8.82627 8.4136C9.09231 8.40971 9.34877 8.54937 9.48545 8.78913C9.15654 9.0337 8.69667 9.04032 8.35771 8.78799L8.24617 8.70525C8.26377 8.68239 8.28251 8.66022 8.30285 8.63942C8.37165 8.56879 8.45348 8.51325 8.54262 8.47485ZM9.14214 9.84053C9.1394 9.84167 9.13643 9.84304 9.13346 9.84442C9.13049 9.84556 9.12751 9.84693 9.12477 9.84807C9.12431 9.8483 9.12386 9.84853 9.12317 9.84876C8.84295 9.96464 8.53005 9.89653 8.32274 9.69882C8.32205 9.69836 8.32159 9.6979 8.32137 9.69768C8.32114 9.69722 8.32091 9.69699 8.32045 9.69676C8.18468 9.56557 8.10309 9.3866 8.09303 9.19872C8.51062 9.49517 9.04317 9.53837 9.49185 9.345C9.51767 9.3338 9.54327 9.32169 9.56864 9.30912C9.52179 9.53631 9.37002 9.73836 9.14374 9.83984C9.14306 9.8403 9.14283 9.84053 9.14214 9.84053ZM7.03157 7.40654C6.94495 7.47145 6.86495 7.54368 6.79158 7.62254L4.86821 6.19058C4.73518 6.09161 4.63027 5.95927 4.56467 5.80796C4.43119 5.49848 4.47325 5.13872 4.67416 4.86856C4.98546 4.45051 5.57904 4.36343 5.99663 4.67451L8.51176 6.54691L8.36456 6.63102C7.83475 6.67993 7.34631 6.95764 7.03157 7.40654Z" fill="#E0E0E0"/>
</svg>
