<svg width="24" height="24" viewBox="0 0 24 24" fill="none" xmlns="http://www.w3.org/2000/svg">
<path d="M6.97589 10.6174H7.41064C7.58206 10.6174 7.72195 10.4777 7.72195 10.3058C7.72195 10.1342 7.58206 9.99474 7.41064 9.99474H6.97589C5.67829 9.99474 4.62275 8.93943 4.62275 7.64206C4.62275 7.01349 4.86778 6.4224 5.31235 5.97783C5.75646 5.53371 6.34732 5.28891 6.97589 5.28891H14.1686L13.9699 5.576C13.548 6.18629 13.3251 6.90034 13.3251 7.6416C13.3251 8.38263 13.5482 9.09691 13.9697 9.7072L14.1686 9.99451H9.71829C9.54664 9.99451 9.40675 10.1339 9.40675 10.3056C9.40675 10.4773 9.54664 10.6171 9.71829 10.6171H14.8696L14.916 10.6491C15.5226 11.064 16.2317 11.2834 16.9665 11.2834C18.975 11.2834 20.609 9.6496 20.609 7.64137C20.6088 5.63314 18.975 4 16.9663 4C16.2314 4 15.5226 4.2192 14.9162 4.63429L14.8689 4.66629H6.97589C6.18092 4.66629 5.43349 4.97577 4.87166 5.5376C4.30938 6.09966 3.99989 6.84709 3.99989 7.64229C3.99989 9.28274 5.33475 10.6174 6.97589 10.6174ZM16.9663 4.62286C18.6314 4.62286 19.9855 5.97714 19.9855 7.64183C19.9855 9.30651 18.6314 10.6608 16.9663 10.6608C15.3021 10.6608 13.9475 9.30651 13.9475 7.64183C13.9475 5.97691 15.3021 4.62286 16.9663 4.62286Z" fill="#E0E0E0"/>
<path d="M17.633 13.3821H9.73863L9.69178 13.3501C9.08538 12.9355 8.37658 12.7163 7.64172 12.7163C5.63349 12.7163 3.99989 14.3499 3.99989 16.3581C3.99989 18.3666 5.63326 20 7.64172 20C8.37658 20 9.08561 19.7808 9.69178 19.3661L9.73886 19.3341H14.8355C15.0072 19.3341 15.1466 19.1947 15.1466 19.0228C15.1466 18.8509 15.0072 18.7113 14.8355 18.7113H10.4397L10.6385 18.4242C11.0605 17.8139 11.2835 17.0992 11.2835 16.3581C11.2835 15.6169 11.0605 14.9026 10.6385 14.2921L10.4397 14.005H17.6326C18.9304 14.005 19.9857 15.0603 19.9857 16.3581C19.9857 16.9867 19.7409 17.5778 19.2959 18.0224C18.8522 18.4663 18.2611 18.7113 17.6326 18.7113H17.1434C16.9715 18.7113 16.8321 18.8509 16.8321 19.0224C16.8321 19.1943 16.9715 19.3339 17.1434 19.3339H17.6326C18.4275 19.3339 19.175 19.0244 19.7366 18.4624C20.2991 17.9003 20.6086 17.1529 20.6086 16.3575C20.6088 14.7175 19.2737 13.3821 17.633 13.3821ZM10.6607 16.3579C10.6607 18.0226 9.30641 19.3771 7.64172 19.3771C5.97704 19.3771 4.62275 18.0226 4.62275 16.3579C4.62275 14.6935 5.97704 13.3392 7.64172 13.3392C9.30641 13.3392 10.6607 14.6935 10.6607 16.3579Z" fill="#E0E0E0"/>
</svg>
