<svg width="24" height="24" viewBox="0 0 24 24" fill="none" xmlns="http://www.w3.org/2000/svg">
<path d="M19.4495 18.5205H18.8633V11.6455C19.49 11.5342 19.9681 10.9856 19.9681 10.3271V9.72738C19.9681 9.67092 19.9476 9.61538 19.9092 9.57173L18.8918 8.42547C18.8061 8.32879 18.6582 8.31965 18.5611 8.40559C18.4644 8.49153 18.4557 8.63964 18.5414 8.73655L19.213 9.49287H17.6532L16.3422 7.43624H17.3876L17.8162 7.91875C17.9019 8.01543 18.0498 8.02434 18.1469 7.9384C18.2434 7.85246 18.2523 7.70435 18.1666 7.60744L17.6683 7.04631C17.6242 6.99626 17.5602 6.96746 17.493 6.96746H16.1491V6.42576H16.5776C16.8807 6.42576 17.1275 6.17914 17.1275 5.87583V4.54993C17.1275 4.24662 16.8807 4 16.5776 4H7.42268C7.11937 4 6.87275 4.24662 6.87275 4.54993V5.87583C6.87275 6.17914 7.11937 6.42599 7.42268 6.42599H7.85146V6.96746H6.5075C6.4403 6.96746 6.37653 6.99626 6.33196 7.04631L4.09066 9.5715C4.05203 9.61515 4.03192 9.6707 4.03192 9.72715H4.03146V10.3269C4.03146 10.9854 4.50962 11.5342 5.13634 11.6453V14.2015C5.13634 14.3309 5.24148 14.4358 5.37085 14.4358C5.50044 14.4358 5.60513 14.3304 5.60513 14.2015V12.6132H7.59867V15.9955H5.60513V15.2952C5.60513 15.1659 5.50044 15.0609 5.37085 15.0609C5.24148 15.0609 5.13634 15.1659 5.13634 15.2952V18.5205H4.55007C4.24677 18.5205 3.99992 18.7673 3.99992 19.0709V19.4494C4.00014 19.7532 4.24699 20 4.5503 20H17.3858C17.5152 20 17.6201 19.8951 17.6201 19.7657C17.6201 19.6366 17.5152 19.5314 17.3858 19.5314H4.5503C4.50527 19.5314 4.46893 19.4951 4.46893 19.4503V19.0718C4.46893 19.027 4.50527 18.9904 4.5503 18.9904H19.4498C19.4948 18.9904 19.5311 19.027 19.5311 19.0718V19.4503C19.5311 19.4951 19.4948 19.5314 19.4498 19.5314H18.4797C18.3504 19.5314 18.2459 19.6366 18.2459 19.7657C18.2459 19.8951 18.3504 20 18.4797 20H19.4495C19.7531 20 19.9997 19.7531 19.9997 19.4501V19.0716C19.9997 18.7678 19.7528 18.5205 19.4495 18.5205ZM16.4009 16.4643H18.3945V17.0058H16.4009V16.4643ZM18.3945 15.9955H16.4009V12.6132H18.3945V15.9955ZM19.4998 9.96189V10.3271C19.4998 10.8071 19.1092 11.1975 18.6288 11.1975C18.1492 11.1975 17.7586 10.8071 17.7586 10.3271V9.96189H19.4998ZM9.32159 7.43647L8.52482 9.4931H6.90315L8.2142 7.43647H9.32159ZM10.9732 7.43647L10.6905 9.4931H9.02743L9.82421 7.43647H10.9732ZM12.5533 7.43647L12.8358 9.4931H11.1638L11.4468 7.43647H12.5533ZM14.1754 7.43647L14.9722 9.4931H13.3089L13.0264 7.43647H14.1754ZM6.71001 9.96189H8.45076V10.3271C8.45076 10.8071 8.0606 11.1975 7.58039 11.1975C7.1004 11.1975 6.71001 10.8071 6.71001 10.3271V9.96189ZM8.91978 9.96189H10.6605V10.3271C10.6605 10.8071 10.2701 11.1975 9.79015 11.1975C9.31016 11.1975 8.91978 10.8071 8.91978 10.3271V9.96189ZM11.1295 9.96189H12.8705V10.3271C12.8705 10.8071 12.4799 11.1975 11.9999 11.1975C11.5202 11.1975 11.1295 10.8071 11.1295 10.3271V9.96189ZM13.3391 9.96189H15.0801V10.3271C15.0801 10.8071 14.6894 11.1975 14.2095 11.1975C13.7295 11.1975 13.3389 10.8071 13.3389 10.3271V9.96189H13.3391ZM15.5484 9.96189H17.2898V10.3271C17.2898 10.8071 16.8992 11.1975 16.4192 11.1975C15.9388 11.1975 15.5482 10.8071 15.5482 10.3271V9.96189H15.5484ZM17.0967 9.4931H15.475L14.6782 7.43647H15.7856L17.0967 9.4931ZM7.34153 5.87629V4.55038C7.34153 4.50536 7.37788 4.46901 7.4229 4.46901H16.5774C16.622 4.46901 16.6583 4.50536 16.6583 4.55038V5.87629C16.6583 5.92109 16.622 5.95766 16.5774 5.95766H7.42268C7.37788 5.95743 7.34153 5.92109 7.34153 5.87629ZM15.6798 6.42622V6.96792H8.32002V6.42622H15.6798ZM6.61264 7.43647H7.6581L6.34705 9.4931H4.78732L6.61264 7.43647ZM4.50047 10.3271V9.96189H6.24122V10.3271C6.24122 10.8071 5.85083 11.1975 5.37085 11.1975C4.89063 11.1975 4.50047 10.8071 4.50047 10.3271ZM7.5989 16.4643V17.0058H5.60536V16.4643H7.5989ZM5.60536 17.4746H7.83318C7.96232 17.4746 8.067 17.3699 8.067 17.2403V12.379C8.067 12.2496 7.96232 12.1447 7.83318 12.1447H5.60536V11.6455C5.96512 11.5815 6.27619 11.3735 6.47573 11.083C6.71755 11.435 7.12234 11.6665 7.58039 11.6665C8.03889 11.6665 8.44345 11.435 8.68527 11.083C8.92686 11.435 9.33188 11.6665 9.78992 11.6665C10.2484 11.6665 10.6532 11.435 10.8946 11.083C11.1364 11.435 11.5414 11.6665 11.9995 11.6665C12.4575 11.6665 12.8623 11.435 13.1041 11.083C13.3459 11.435 13.751 11.6665 14.2088 11.6665C14.667 11.6665 15.0721 11.435 15.3137 11.083C15.5552 11.435 15.96 11.6665 16.4185 11.6665C16.8766 11.6665 17.2814 11.435 17.5232 11.083C17.7227 11.3735 18.0336 11.5815 18.3936 11.6455V12.1447H16.1667C16.0373 12.1447 15.9324 12.2496 15.9324 12.379V17.2401C15.9324 17.3697 16.0373 17.4744 16.1667 17.4744H18.3942V18.5205H15.3909V12.379C15.3909 12.2496 15.2862 12.1447 15.1566 12.1447H8.84298C8.71361 12.1447 8.60893 12.2496 8.60893 12.379V18.5205H5.60536V17.4746ZM12.2342 12.6132H14.9221V18.5207H12.2342V12.6132ZM11.7656 18.5205H9.07771V12.6132H11.7656V18.5205Z" fill="#E0E0E0"/>
</svg>
