<?xml version="1.0" encoding="utf-8"?>
<!-- Generator: Adobe Illustrator 16.0.0, SVG Export Plug-In . SVG Version: 6.00 Build 0)  -->
<!DOCTYPE svg PUBLIC "-//W3C//DTD SVG 1.1//EN" "http://www.w3.org/Graphics/SVG/1.1/DTD/svg11.dtd">
<svg version="1.1" id="Layer_1" xmlns="http://www.w3.org/2000/svg" xmlns:xlink="http://www.w3.org/1999/xlink" x="0px" y="0px"
	 width="500px" height="500px" viewBox="0 0 500 500" enable-background="new 0 0 500 500" xml:space="preserve">
<g id="Chip">
	<rect x="175.137" y="175.137" fill="#06C987" width="149.727" height="149.727"/>
	<path fill="#EAEAEA" d="M474.482,275.967c12.48,0.059,25.01-12.363,25.068-24.844c0.068-14.971-12.363-25.01-24.844-25.068
		l-49.912-0.225l0.225-49.912l49.912,0.225c12.48,0.059,25.01-12.354,25.068-24.834c0.068-14.98-12.363-25.02-24.844-25.078
		l-49.912-0.215l0.117-24.961c0.068-14.971-12.363-25.01-24.844-25.068l-24.961-0.107l0.234-49.912
		c0.059-14.971-12.373-25.01-24.844-25.068c-12.48-0.059-25,9.863-25.068,24.844l-0.225,49.902l-49.912-0.215l0.225-49.912
		c0.068-14.971-12.363-25.01-24.844-25.068s-25,9.863-25.068,24.844l-0.225,49.902l-49.912-0.215l0.225-49.912
		C176.211,10.098,163.779,0.059,151.299,0c-12.471-0.059-25,9.863-25.068,24.844l-0.225,49.902l-24.951-0.107
		c-12.48-0.049-25,9.873-25.068,24.844l-0.107,24.951l-49.912-0.215c-12.48-0.059-25,9.863-25.068,24.834
		c-0.059,12.48,12.363,25.01,24.844,25.068l49.912,0.225l-0.225,49.912l-49.912-0.225c-12.48-0.059-25,9.873-25.068,24.844
		c-0.059,12.48,12.363,25.01,24.844,25.068l49.912,0.225l-0.225,49.912l-49.912-0.225c-12.48-0.059-25,9.863-25.068,24.834
		c-0.059,12.48,12.363,25.02,24.844,25.068l49.912,0.234l-0.117,24.951c-0.059,12.471,12.363,25.01,24.844,25.068l24.951,0.107
		l-0.225,49.912c-0.049,12.48,12.363,25.01,24.844,25.068s25.01-12.363,25.068-24.844l0.225-49.912l49.912,0.225l-0.225,49.912
		c-0.059,12.48,12.363,25.01,24.844,25.068s25.01-12.363,25.068-24.844l0.225-49.912l49.912,0.225l-0.225,49.912
		c-0.059,12.48,12.363,25.01,24.834,25.068c12.48,0.059,25.02-12.363,25.068-24.844l0.234-49.912l24.951,0.117
		c12.471,0.059,25.01-12.363,25.068-24.844l0.107-24.951l49.912,0.225c12.48,0.049,25.01-12.373,25.068-24.844
		c0.068-14.971-12.363-25.01-24.844-25.068l-49.912-0.225l0.225-49.912L474.482,275.967z M374.209,375.342l-249.551-1.133
		l1.133-249.541l249.551,1.113L374.209,375.342z"/>
</g>
</svg>
