<?xml version="1.0" encoding="utf-8"?>
<!-- Generator: Adobe Illustrator 16.0.0, SVG Export Plug-In . SVG Version: 6.00 Build 0)  -->
<!DOCTYPE svg PUBLIC "-//W3C//DTD SVG 1.1//EN" "http://www.w3.org/Graphics/SVG/1.1/DTD/svg11.dtd">
<svg version="1.1" id="Layer_1" xmlns="http://www.w3.org/2000/svg" xmlns:xlink="http://www.w3.org/1999/xlink" x="0px" y="0px"
	 width="500px" height="500px" viewBox="0 0 500 500" enable-background="new 0 0 500 500" xml:space="preserve">
<g id="System_1_">
	<path fill="#06C987" d="M145.723,246.016c0.723-1.875,1.504-3.73,2.275-5.547l-6.006-8.555
		c-7.178-10.225-10.449-22.676-9.219-35.117c-15.791-5-28.145-17.383-33.115-33.164c-8.438-26.777,6.426-55.313,33.193-63.75
		s55.303,6.426,63.74,33.203c1.865-0.156,3.467-0.469,5.176-0.469c10.771-0.029,21.289,3.281,30.098,9.473l8.555,5.957l5.537-2.266
		l1.816-10.371c1.543-8.652,5.244-16.777,10.771-23.613c-2.373-7.344-5.488-14.424-9.277-21.143l13.008-18.486
		c4.775-6.816,3.965-16.094-1.914-21.973l-13.418-13.311c-5.869-5.879-15.107-6.689-21.914-1.924l-18.496,13.008
		c-8.711-5.049-18.047-8.926-27.764-11.553l-3.887-22.275C173.438,5.977,166.348,0.02,158.047,0h-18.906
		c-8.33,0-15.449,5.986-16.885,14.199l-3.887,22.266c-9.697,2.617-19.014,6.484-27.715,11.504L72.109,34.863
		c-6.797-4.766-16.045-3.965-21.914,1.914L36.836,50.137c-5.889,5.898-6.699,15.156-1.924,21.973l13.057,18.545
		c-5.039,8.701-8.926,18.018-11.553,27.715l-22.275,3.887C5.957,123.711,0,130.83,0,139.141v18.857
		c0,8.311,5.957,15.43,14.141,16.885l22.324,3.945c2.607,9.688,6.484,19.014,11.504,27.715l-13.057,18.486
		c-4.775,6.816-3.965,16.084,1.924,21.963l13.359,13.369c5.85,5.869,15.059,6.689,21.865,1.963l18.545-12.998
		c6.719,3.779,13.799,6.895,21.133,9.268c6.846-5.518,14.971-9.229,23.623-10.771L145.723,246.016z"/>
	<path fill="#EAEAEA" d="M482.021,278.281l-28.232-5.176c-3.311-12.324-8.223-24.18-14.609-35.234l16.475-23.516
		c6.064-8.652,5.039-20.4-2.432-27.871l-16.943-16.934c-7.461-7.461-19.219-8.496-27.871-2.432l-23.721,16.475
		c-10.889-6.367-22.559-11.289-34.707-14.668l-5.186-28.223c-1.846-10.313-10.762-17.852-21.24-17.93H299.58
		c-10.547,0.02-19.57,7.598-21.396,17.969l-5.186,28.242c-12.305,3.311-24.131,8.223-35.176,14.609l-23.516-16.475
		c-8.623-6.045-20.342-5.049-27.822,2.373l-16.934,16.953c-7.471,7.461-8.496,19.219-2.432,27.871l16.416,23.252
		c-6.387,11.055-11.289,22.9-14.609,35.225l-28.232,5.176c-10.361,1.865-17.91,10.869-17.92,21.396v23.574
		c0.01,10.547,7.588,19.561,17.979,21.387l28.232,5.195c3.311,12.305,8.223,24.121,14.609,35.166l-16.475,23.721
		c-6.201,8.682-5.186,20.566,2.383,28.086l16.934,16.729c7.471,7.471,19.219,8.496,27.871,2.432l23.311-16.465
		c11.045,6.367,22.861,11.289,35.176,14.6l5.176,28.232c1.836,10.391,10.859,17.969,21.396,17.979h23.516
		c10.557-0.01,19.57-7.588,21.396-17.979l5.186-28.232c12.324-3.311,24.17-8.223,35.225-14.6l23.936,16.465
		c8.652,6.064,20.4,5.039,27.861-2.432l16.738-16.729c7.695-7.529,8.73-19.551,2.432-28.281l-16.475-23.525
		c6.367-10.957,11.279-22.695,14.609-34.912l28.232-5.186c10.391-1.826,17.959-10.85,17.979-21.396v-23.828
		C499.834,288.936,492.295,280.088,482.021,278.281z M311.387,376.084c-35.732,0-64.697-28.965-64.697-64.697
		s28.965-64.707,64.697-64.707s64.707,28.975,64.707,64.707S347.119,376.084,311.387,376.084z"/>
</g>
</svg>
