<?xml version="1.0" encoding="utf-8"?>
<!-- Generator: Adobe Illustrator 16.0.0, SVG Export Plug-In . SVG Version: 6.00 Build 0)  -->
<!DOCTYPE svg PUBLIC "-//W3C//DTD SVG 1.1//EN" "http://www.w3.org/Graphics/SVG/1.1/DTD/svg11.dtd">
<svg version="1.1" id="Layer_1" xmlns="http://www.w3.org/2000/svg" xmlns:xlink="http://www.w3.org/1999/xlink" x="0px" y="0px"
	 width="500px" height="500px" viewBox="0 0 500 500" enable-background="new 0 0 500 500" xml:space="preserve">
<g id="Dimensions">
	<polygon fill="#EAEAEA" points="187.5,0 0,0 0,187.5 71.563,115.938 165.313,209.688 209.688,165.313 115.938,71.563 	"/>
	<polygon fill="#EAEAEA" points="312.5,0 384.063,71.563 290.313,165.313 334.688,209.688 428.438,115.938 500,187.5 500,0 	"/>
	<polygon fill="#EAEAEA" points="165.313,290.313 71.563,384.063 0,312.5 0,500 187.5,500 115.938,428.438 209.688,334.688 	"/>
	<polygon fill="#06C987" points="334.688,290.313 290.313,334.688 384.063,428.438 312.5,500 500,500 500,312.5 428.438,384.063 	
		"/>
</g>
</svg>
