<?xml version="1.0" encoding="utf-8"?>
<!-- Generator: Adobe Illustrator 16.0.0, SVG Export Plug-In . SVG Version: 6.00 Build 0)  -->
<!DOCTYPE svg PUBLIC "-//W3C//DTD SVG 1.1//EN" "http://www.w3.org/Graphics/SVG/1.1/DTD/svg11.dtd">
<svg version="1.1" id="Layer_1" xmlns="http://www.w3.org/2000/svg" xmlns:xlink="http://www.w3.org/1999/xlink" x="0px" y="0px"
	 width="500px" height="500px" viewBox="0 0 500 500" enable-background="new 0 0 500 500" xml:space="preserve">
<g id="Date">
	<path fill="#EAEAEA" d="M467.75,49.156h-53.672v23.159c0,22.036-18.076,40.117-40.107,40.117h-24.863
		c-22.03,0-40.106-18.081-40.106-40.117V49.156H192.614v23.159c0,22.036-18.077,40.117-40.108,40.117h-24.863
		c-22.031,0-40.117-18.081-40.117-40.117V49.156H33.854c-20.899,0-38.418,16.948-38.418,38.417v374.008
		C-4.564,482.48,12.389,500,33.854,500h432.773c20.898,0,38.418-16.953,38.418-38.419V87.573
		C505.045,66.104,488.092,49.156,467.75,49.156z"/>
	<path fill="#FFFFFF" d="M104.176,262.422h36.679c7.207,0,13.105-5.894,13.105-13.096v-36.68c0-7.202-5.898-13.1-13.105-13.1
		h-36.679c-7.197,0-13.096,5.898-13.096,13.1v36.68C91.081,256.528,96.979,262.422,104.176,262.422z"/>
	<path fill="#FFFFFF" d="M189.322,262.422h36.689c7.197,0,13.096-5.894,13.096-13.096v-36.68c0-7.202-5.898-13.1-13.096-13.1
		h-36.689c-7.197,0-13.096,5.898-13.096,13.1v36.68C176.227,256.528,182.125,262.422,189.322,262.422z"/>
	<path fill="#FFFFFF" d="M274.469,262.422h36.68c7.206,0,13.105-5.894,13.105-13.096v-36.68c0-7.202-5.899-13.1-13.105-13.1h-36.68
		c-7.197,0-13.095,5.898-13.095,13.1v36.68C261.374,256.528,267.271,262.422,274.469,262.422z"/>
	<path fill="#FFFFFF" d="M189.322,345.605h36.689c7.197,0,13.096-5.889,13.096-13.096v-36.679c0-7.208-5.898-13.097-13.096-13.097
		h-36.689c-7.197,0-13.096,5.889-13.096,13.097v36.679C176.227,339.717,182.125,345.605,189.322,345.605z"/>
	<path fill="#FFFFFF" d="M274.469,345.605h36.68c7.206,0,13.105-5.889,13.105-13.096v-36.679c0-7.208-5.899-13.097-13.105-13.097
		h-36.68c-7.197,0-13.095,5.889-13.095,13.097v36.679C261.374,339.717,267.271,345.605,274.469,345.605z"/>
	<path fill="#FFFFFF" d="M359.625,345.605h36.67c7.207,0,13.105-5.889,13.105-13.096v-36.679c0-7.208-5.898-13.097-13.105-13.097
		h-36.67c-7.207,0-13.105,5.889-13.105,13.097v36.679C346.52,339.717,352.418,345.605,359.625,345.605z"/>
	<path fill="#FFFFFF" d="M359.625,428.134h36.67c7.207,0,13.105-5.897,13.105-13.095v-36.681c0-7.206-5.898-13.095-13.105-13.095
		h-36.67c-7.207,0-13.105,5.889-13.105,13.095v36.681C346.52,422.899,352.418,428.134,359.625,428.134z"/>
	<path fill="#FFFFFF" d="M104.176,345.605h36.679c7.207,0,13.105-5.889,13.105-13.096v-36.679c0-7.208-5.898-13.097-13.105-13.097
		h-36.679c-7.197,0-13.096,5.889-13.096,13.097v36.679C91.081,339.717,96.979,345.605,104.176,345.605z"/>
	<path fill="#FFFFFF" d="M274.469,428.134h36.68c7.206,0,13.105-5.897,13.105-13.095v-36.681c0-7.206-5.899-13.095-13.105-13.095
		h-36.68c-7.197,0-13.095,5.889-13.095,13.095v36.681C261.374,422.899,267.271,428.134,274.469,428.134z"/>
	<path fill="#FFFFFF" d="M189.322,428.134h36.689c7.197,0,13.096-5.897,13.096-13.095v-36.681c0-7.206-5.898-13.095-13.096-13.095
		h-36.689c-7.197,0-13.096,5.889-13.096,13.095v36.681C176.227,422.899,182.125,428.134,189.322,428.134z"/>
	<path fill="#06C987" d="M127.077,89.834h24.863c10.166,0,18.076-7.91,18.076-18.086V18.082C170.016,7.91,162.105,0,151.94,0
		h-24.863C116.91,0,109,7.91,109,18.082v54.233C109.566,81.924,117.477,89.834,127.077,89.834z"/>
	<path fill="#06C987" d="M348.541,89.834h24.863c10.166,0,18.076-7.91,18.076-18.086V18.082C391.48,7.91,383.57,0,373.404,0h-24.863
		c-10.166,0-18.076,7.91-18.076,18.082v54.233C330.465,81.924,338.375,89.834,348.541,89.834z"/>
</g>
</svg>
