<svg width="32" height="32" viewBox="0 0 32 32" fill="none" xmlns="http://www.w3.org/2000/svg">
<path d="M17.8509 21.5999V17.7748C17.8509 17.6017 17.7122 17.4624 17.5388 17.4624C17.3666 17.4624 17.2277 17.602 17.2277 17.7748V21.5999C17.2277 21.7708 17.3663 21.9101 17.5388 21.9101C17.7122 21.9101 17.8509 21.7708 17.8509 21.5999Z" fill="#909090"/>
<path d="M26.2412 9.48984H25.4912V8.10439C25.4912 7.8935 25.3178 7.721 25.1078 7.721H23.6465V5.8519C23.6465 5.56664 23.4139 5.3335 23.1268 5.3335H8.84539C8.55678 5.3335 8.32455 5.56694 8.32455 5.8519V7.721H6.97872C6.7663 7.721 6.59564 7.8935 6.59564 8.10439V9.48984H5.73011C5.51221 9.48984 5.33331 9.66843 5.33331 9.88755V11.1066C5.33331 11.3251 5.51221 11.5043 5.73011 11.5043H5.87091V26.3548C5.87091 26.5269 6.01232 26.6668 6.18329 26.6668H25.7892C25.962 26.6668 26.1004 26.5269 26.1004 26.3548V21.6002C26.1004 21.4274 25.9629 21.2881 25.7892 21.2881C25.617 21.2881 25.4778 21.4274 25.4778 21.6002V26.0436H24.572V23.3958V15.9791V13.179C24.572 12.9184 24.3599 12.7081 24.1002 12.7081H18.7425H15.7772C15.6038 12.7081 15.4642 12.8456 15.4642 13.0184C15.4642 13.1915 15.6038 13.3314 15.7772 13.3314H18.4329V26.0433H13.539V13.3314H14.3268C14.4996 13.3314 14.6389 13.1915 14.6389 13.0184C14.6389 12.8456 14.4996 12.7081 14.3268 12.7081H13.2288H7.87228C7.61202 12.7081 7.3996 12.9181 7.3996 13.179V26.0433H6.49446V11.504H25.4772V20.1434C25.4772 20.3165 25.617 20.4564 25.7889 20.4564C25.962 20.4564 26.0998 20.3165 26.0998 20.1434V11.504H26.2415C26.4594 11.504 26.6392 11.3248 26.6392 11.1063V9.88725C26.6389 9.66843 26.4591 9.48984 26.2412 9.48984ZM19.0555 13.3314H23.9482V15.6664H19.0555V13.3314ZM19.0555 16.2915H23.9482V23.0831H19.0555V16.2915ZM19.0555 23.7064H23.9482V26.0433H19.0555V23.7064ZM8.02345 13.3314H12.9161V15.6664H8.02345V13.3314ZM8.02345 16.2915H12.9161V23.0831H8.02345V16.2915ZM8.02345 23.7064H12.9161V26.0433H8.02345V23.7064ZM23.6465 8.34576H24.8664V9.48984H23.6465V8.34576ZM8.9484 5.95643H23.022V9.48984H8.9484V5.95643ZM7.21857 8.34576H8.32425V9.48984H7.21857V8.34576ZM26.0151 10.8789H5.95533V10.1122H26.0151V10.8789Z" fill="#909090"/>
</svg>
