<svg width="32" height="32" viewBox="0 0 32 32" fill="none" xmlns="http://www.w3.org/2000/svg">
<path d="M13.4392 26.6668C13.3666 26.6668 13.2969 26.638 13.2456 26.5866C13.1943 26.5353 13.1654 26.4657 13.1654 26.3931C13.1654 26.3205 13.1943 26.2508 13.2456 26.1995C13.2969 26.1482 13.3666 26.1193 13.4392 26.1193H26.4555C26.5317 26.1193 26.6072 26.1043 26.6776 26.075C26.748 26.0457 26.812 26.0028 26.8657 25.9488C26.9195 25.8948 26.9621 25.8306 26.991 25.7601C27.0199 25.6895 27.0346 25.6139 27.0343 25.5377V24.9774H5.88224V25.5377C5.88205 25.614 5.89692 25.6896 5.92599 25.7602C5.95507 25.8307 5.99778 25.8949 6.05167 25.9489C6.10557 26.0029 6.16959 26.0458 6.24008 26.075C6.31057 26.1043 6.38613 26.1193 6.46244 26.1193H11.9104C11.983 26.1193 12.0527 26.1482 12.104 26.1995C12.1553 26.2508 12.1842 26.3205 12.1842 26.3931C12.1842 26.4657 12.1553 26.5353 12.104 26.5866C12.0527 26.638 11.983 26.6668 11.9104 26.6668H6.46244C6.16391 26.6646 5.87822 26.5451 5.66699 26.3342C5.45576 26.1232 5.33592 25.8376 5.33331 25.5391V9.27337C5.33592 8.97484 5.45576 8.6893 5.66699 8.47833C5.87822 8.26737 6.16391 8.14789 6.46244 8.14566H13.3382V7.10896C13.3382 6.95156 13.4006 6.80058 13.5118 6.68914C13.623 6.5777 13.7738 6.51491 13.9312 6.51453H18.9853C19.1427 6.51491 19.2935 6.5777 19.4047 6.68914C19.5159 6.80058 19.5783 6.95156 19.5783 7.10896V8.14566H21.5948V6.29269C21.5948 6.0383 21.6959 5.79432 21.8757 5.61444C22.0556 5.43455 22.2996 5.3335 22.554 5.3335C22.8084 5.3335 23.0524 5.43455 23.2322 5.61444C23.4121 5.79432 23.5132 6.0383 23.5132 6.29269V8.14139H26.454C26.7528 8.14215 27.039 8.26124 27.2501 8.47261C27.4612 8.68397 27.58 8.97038 27.5803 9.2691V25.5391C27.5803 25.838 27.4617 26.1246 27.2505 26.336C27.0394 26.5475 26.7529 26.6665 26.454 26.6668H13.4392ZM5.88224 24.4299H27.0271V12.5612H23.5089V15.7552C23.5039 15.8244 23.4729 15.8891 23.4221 15.9364C23.3713 15.9837 23.3045 16.0099 23.2352 16.0099C23.1658 16.0099 23.099 15.9837 23.0482 15.9364C22.9974 15.8891 22.9664 15.8244 22.9614 15.7552V13.3562H22.138V20.6784C22.1388 20.8077 22.169 20.9351 22.2262 21.051L22.5504 21.6981L22.8747 21.051C22.9319 20.9351 22.9621 20.8077 22.9628 20.6784V17.2811C22.9601 17.2435 22.9652 17.2057 22.9777 17.1702C22.9902 17.1346 23.01 17.102 23.0357 17.0744C23.0613 17.0468 23.0924 17.0248 23.127 17.0097C23.1616 16.9947 23.1989 16.9869 23.2366 16.9869C23.2743 16.9869 23.3116 16.9947 23.3462 17.0097C23.3807 17.0248 23.4118 17.0468 23.4375 17.0744C23.4632 17.102 23.4829 17.1346 23.4955 17.1702C23.508 17.2057 23.5131 17.2435 23.5103 17.2811V20.6841C23.5129 20.8987 23.4641 21.1108 23.3681 21.3027L22.8363 22.3693V22.6537C22.839 22.6913 22.8339 22.7291 22.8214 22.7647C22.8089 22.8002 22.7891 22.8328 22.7635 22.8604C22.7378 22.888 22.7067 22.91 22.6721 22.9251C22.6375 22.9402 22.6002 22.9479 22.5625 22.9479C22.5248 22.9479 22.4875 22.9402 22.4529 22.9251C22.4184 22.91 22.3873 22.888 22.3616 22.8604C22.3359 22.8328 22.3162 22.8002 22.3037 22.7647C22.2911 22.7291 22.2861 22.6913 22.2888 22.6537V22.3864L21.7498 21.2956C21.6552 21.1032 21.6065 20.8915 21.6076 20.677V12.5612H5.88224V24.4299ZM22.1366 12.8058H22.9671V10.283H22.1437L22.1366 12.8058ZM23.5075 12.0137H27.0271V9.27337C27.0273 9.19724 27.0125 9.12183 26.9835 9.05144C26.9545 8.98105 26.9119 8.91708 26.8581 8.86318C26.8044 8.80929 26.7405 8.76653 26.6702 8.73735C26.5999 8.70818 26.5245 8.69316 26.4484 8.69316H23.5089L23.5075 12.0137ZM5.88224 9.27337V12.0194H21.5905V8.69174H6.46244C6.38613 8.69174 6.31057 8.70679 6.24008 8.73604C6.16959 8.76529 6.10557 8.80815 6.05167 8.86218C5.99778 8.91621 5.95507 8.98034 5.92599 9.0509C5.89692 9.12145 5.88205 9.19705 5.88224 9.27337ZM22.1366 9.73554H22.9671V8.91216H22.1437L22.1366 9.73554ZM22.1366 8.36466H22.9671V7.66784H22.1437L22.1366 8.36466ZM13.8885 8.14566H19.0237V7.06203H13.8857L13.8885 8.14566ZM22.1366 6.29696V7.12461H22.9671V6.29269C22.9671 6.1835 22.9237 6.07879 22.8465 6.00158C22.7693 5.92437 22.6646 5.881 22.5554 5.881C22.4462 5.881 22.3415 5.92437 22.2643 6.00158C22.1871 6.07879 22.1437 6.1835 22.1437 6.29269L22.1366 6.29696ZM24.338 16.2785C24.3004 16.2812 24.2626 16.2762 24.2271 16.2637C24.1915 16.2511 24.1589 16.2314 24.1313 16.2057C24.1037 16.18 24.0817 16.1489 24.0666 16.1144C24.0516 16.0798 24.0438 16.0425 24.0438 16.0048C24.0438 15.9671 24.0516 15.9298 24.0666 15.8952C24.0817 15.8606 24.1037 15.8295 24.1313 15.8039C24.1589 15.7782 24.1915 15.7584 24.2271 15.7459C24.2626 15.7334 24.3004 15.7283 24.338 15.731H25.2581C25.3273 15.736 25.392 15.767 25.4393 15.8178C25.4865 15.8686 25.5128 15.9354 25.5128 16.0048C25.5128 16.0742 25.4865 16.141 25.4393 16.1917C25.392 16.2425 25.3273 16.2735 25.2581 16.2785H24.338ZM7.64988 16.2785C7.61227 16.2812 7.57451 16.2762 7.53894 16.2637C7.50338 16.2511 7.47078 16.2314 7.44317 16.2057C7.41557 16.18 7.39355 16.1489 7.3785 16.1144C7.36345 16.0798 7.35568 16.0425 7.35568 16.0048C7.35568 15.9671 7.36345 15.9298 7.3785 15.8952C7.39355 15.8606 7.41557 15.8295 7.44317 15.8039C7.47078 15.7782 7.50338 15.7584 7.53894 15.7459C7.57451 15.7334 7.61227 15.7283 7.64988 15.731H8.56854C8.63774 15.736 8.70248 15.767 8.74973 15.8178C8.79699 15.8686 8.82326 15.9354 8.82326 16.0048C8.82326 16.0742 8.79699 16.141 8.74973 16.1917C8.70248 16.2425 8.63774 16.2735 8.56854 16.2785H7.64988Z" fill="#909090"/>
</svg>
